M48
; DRILL file {KiCad (5.1.12)-1} date 10/17/22 14:23:27
; FORMAT={-:-/ absolute / inch / decimal}
; #@! TF.CreationDate,2022-10-17T14:23:27-06:00
; #@! TF.GenerationSoftware,Kicad,Pcbnew,(5.1.12)-1
; #@! TF.FileFunction,Plated,1,2,PTH
FMAT,2
INCH
T1C0.0276
T2C0.0315
T3C0.0394
T4C0.0472
T5C0.0591
T6C0.0709
%
G90
G05
T1
X4.63Y-4.2066
X4.63Y-4.305
T2
X4.48Y-3.56
X4.48Y-3.86
X4.485Y-3.99
X4.485Y-4.49
X4.82Y-3.91
X4.82Y-4.41
X5.17Y-4.215
X5.17Y-4.3528
X5.415Y-3.66
X5.415Y-3.96
X5.5Y-4.1531
X5.5Y-4.35
X5.63Y-3.57
X5.63Y-3.67
X5.63Y-3.77
X5.71Y-2.36
X5.71Y-2.66
X5.7113Y-3.11
X5.79Y-3.11
X5.835Y-3.285
X5.835Y-3.385
X5.835Y-3.485
X5.885Y-2.78
X5.975Y-3.0
X5.975Y-3.1
X5.975Y-3.2
X6.065Y-2.265
X6.065Y-2.565
X6.185Y-2.78
X6.205Y-2.265
X6.205Y-2.565
X6.335Y-2.265
X6.335Y-2.565
X6.465Y-2.265
X6.465Y-2.565
X6.655Y-2.26
X6.715Y-2.635
X6.7337Y-2.26
X6.8134Y-2.635
X6.995Y-2.215
X6.995Y-2.515
T3
X4.24Y-2.335
X4.24Y-2.6303
X4.67Y-2.335
X4.67Y-2.6303
X5.095Y-2.335
X5.095Y-2.6303
T4
X4.22Y-3.345
X4.22Y-4.145
X4.45Y-2.145
X4.45Y-2.645
X4.875Y-2.145
X4.875Y-2.645
X5.305Y-2.145
X5.305Y-2.645
X5.6016Y-2.1984
X5.7Y-2.1
X5.7984Y-2.1984
X6.37Y-3.19
X6.37Y-3.99
T5
X4.6513Y-3.295
X4.7519Y-3.5381
X4.995Y-2.9512
X4.995Y-3.6387
X5.2381Y-3.0519
X5.2381Y-3.5381
X5.3388Y-3.295
T6
X6.8335Y-3.205
X6.8335Y-3.3704
X6.8335Y-3.5357
X6.8335Y-3.7011
X7.05Y-3.205
X7.05Y-3.3704
X7.05Y-3.5357
X7.05Y-3.7011
T0
M30
