%TF.GenerationSoftware,KiCad,Pcbnew,(5.1.12)-1*%
%TF.CreationDate,2022-10-14T12:22:32-06:00*%
%TF.ProjectId,SE30-Grayscale,53453330-2d47-4726-9179-7363616c652e,rev?*%
%TF.SameCoordinates,Original*%
%TF.FileFunction,Legend,Top*%
%TF.FilePolarity,Positive*%
%FSLAX46Y46*%
G04 Gerber Fmt 4.6, Leading zero omitted, Abs format (unit mm)*
G04 Created by KiCad (PCBNEW (5.1.12)-1) date 2022-10-14 12:22:32*
%MOMM*%
%LPD*%
G01*
G04 APERTURE LIST*
%ADD10C,0.150000*%
%ADD11C,0.120000*%
G04 APERTURE END LIST*
D10*
X105323142Y-82277976D02*
X105370761Y-82325595D01*
X105418380Y-82468452D01*
X105418380Y-82563690D01*
X105370761Y-82706547D01*
X105275523Y-82801785D01*
X105180285Y-82849404D01*
X104989809Y-82897023D01*
X104846952Y-82897023D01*
X104656476Y-82849404D01*
X104561238Y-82801785D01*
X104466000Y-82706547D01*
X104418380Y-82563690D01*
X104418380Y-82468452D01*
X104466000Y-82325595D01*
X104513619Y-82277976D01*
X105418380Y-81706547D02*
X105370761Y-81801785D01*
X105275523Y-81849404D01*
X104418380Y-81849404D01*
X105418380Y-81182738D02*
X105370761Y-81277976D01*
X105323142Y-81325595D01*
X105227904Y-81373214D01*
X104942190Y-81373214D01*
X104846952Y-81325595D01*
X104799333Y-81277976D01*
X104751714Y-81182738D01*
X104751714Y-81039880D01*
X104799333Y-80944642D01*
X104846952Y-80897023D01*
X104942190Y-80849404D01*
X105227904Y-80849404D01*
X105323142Y-80897023D01*
X105370761Y-80944642D01*
X105418380Y-81039880D01*
X105418380Y-81182738D01*
X104751714Y-80420833D02*
X105418380Y-80420833D01*
X104846952Y-80420833D02*
X104799333Y-80373214D01*
X104751714Y-80277976D01*
X104751714Y-80135119D01*
X104799333Y-80039880D01*
X104894571Y-79992261D01*
X105418380Y-79992261D01*
X105370761Y-79135119D02*
X105418380Y-79230357D01*
X105418380Y-79420833D01*
X105370761Y-79516071D01*
X105275523Y-79563690D01*
X104894571Y-79563690D01*
X104799333Y-79516071D01*
X104751714Y-79420833D01*
X104751714Y-79230357D01*
X104799333Y-79135119D01*
X104894571Y-79087500D01*
X104989809Y-79087500D01*
X105085047Y-79563690D01*
X105418380Y-78230357D02*
X104418380Y-78230357D01*
X105370761Y-78230357D02*
X105418380Y-78325595D01*
X105418380Y-78516071D01*
X105370761Y-78611309D01*
X105323142Y-78658928D01*
X105227904Y-78706547D01*
X104942190Y-78706547D01*
X104846952Y-78658928D01*
X104799333Y-78611309D01*
X104751714Y-78516071D01*
X104751714Y-78325595D01*
X104799333Y-78230357D01*
X105418380Y-76992261D02*
X104751714Y-76992261D01*
X104418380Y-76992261D02*
X104466000Y-77039880D01*
X104513619Y-76992261D01*
X104466000Y-76944642D01*
X104418380Y-76992261D01*
X104513619Y-76992261D01*
X104751714Y-76516071D02*
X105418380Y-76516071D01*
X104846952Y-76516071D02*
X104799333Y-76468452D01*
X104751714Y-76373214D01*
X104751714Y-76230357D01*
X104799333Y-76135119D01*
X104894571Y-76087500D01*
X105418380Y-76087500D01*
X105323142Y-74277976D02*
X105370761Y-74325595D01*
X105418380Y-74468452D01*
X105418380Y-74563690D01*
X105370761Y-74706547D01*
X105275523Y-74801785D01*
X105180285Y-74849404D01*
X104989809Y-74897023D01*
X104846952Y-74897023D01*
X104656476Y-74849404D01*
X104561238Y-74801785D01*
X104466000Y-74706547D01*
X104418380Y-74563690D01*
X104418380Y-74468452D01*
X104466000Y-74325595D01*
X104513619Y-74277976D01*
X105418380Y-73420833D02*
X104894571Y-73420833D01*
X104799333Y-73468452D01*
X104751714Y-73563690D01*
X104751714Y-73754166D01*
X104799333Y-73849404D01*
X105370761Y-73420833D02*
X105418380Y-73516071D01*
X105418380Y-73754166D01*
X105370761Y-73849404D01*
X105275523Y-73897023D01*
X105180285Y-73897023D01*
X105085047Y-73849404D01*
X105037428Y-73754166D01*
X105037428Y-73516071D01*
X104989809Y-73420833D01*
X104751714Y-72944642D02*
X105418380Y-72944642D01*
X104846952Y-72944642D02*
X104799333Y-72897023D01*
X104751714Y-72801785D01*
X104751714Y-72658928D01*
X104799333Y-72563690D01*
X104894571Y-72516071D01*
X105418380Y-72516071D01*
X105418380Y-71611309D02*
X104894571Y-71611309D01*
X104799333Y-71658928D01*
X104751714Y-71754166D01*
X104751714Y-71944642D01*
X104799333Y-72039880D01*
X105370761Y-71611309D02*
X105418380Y-71706547D01*
X105418380Y-71944642D01*
X105370761Y-72039880D01*
X105275523Y-72087500D01*
X105180285Y-72087500D01*
X105085047Y-72039880D01*
X105037428Y-71944642D01*
X105037428Y-71706547D01*
X104989809Y-71611309D01*
X105418380Y-70706547D02*
X104418380Y-70706547D01*
X105370761Y-70706547D02*
X105418380Y-70801785D01*
X105418380Y-70992261D01*
X105370761Y-71087500D01*
X105323142Y-71135119D01*
X105227904Y-71182738D01*
X104942190Y-71182738D01*
X104846952Y-71135119D01*
X104799333Y-71087500D01*
X104751714Y-70992261D01*
X104751714Y-70801785D01*
X104799333Y-70706547D01*
X105418380Y-69801785D02*
X104894571Y-69801785D01*
X104799333Y-69849404D01*
X104751714Y-69944642D01*
X104751714Y-70135119D01*
X104799333Y-70230357D01*
X105370761Y-69801785D02*
X105418380Y-69897023D01*
X105418380Y-70135119D01*
X105370761Y-70230357D01*
X105275523Y-70277976D01*
X105180285Y-70277976D01*
X105085047Y-70230357D01*
X105037428Y-70135119D01*
X105037428Y-69897023D01*
X104989809Y-69801785D01*
X105370761Y-69277976D02*
X105418380Y-69277976D01*
X105513619Y-69325595D01*
X105561238Y-69373214D01*
X107020761Y-82468452D02*
X107068380Y-82563690D01*
X107068380Y-82754166D01*
X107020761Y-82849404D01*
X106925523Y-82897023D01*
X106544571Y-82897023D01*
X106449333Y-82849404D01*
X106401714Y-82754166D01*
X106401714Y-82563690D01*
X106449333Y-82468452D01*
X106544571Y-82420833D01*
X106639809Y-82420833D01*
X106735047Y-82897023D01*
X107068380Y-81992261D02*
X106068380Y-81992261D01*
X107068380Y-81563690D02*
X106544571Y-81563690D01*
X106449333Y-81611309D01*
X106401714Y-81706547D01*
X106401714Y-81849404D01*
X106449333Y-81944642D01*
X106496952Y-81992261D01*
X106973142Y-80944642D02*
X107020761Y-80897023D01*
X107068380Y-80944642D01*
X107020761Y-80992261D01*
X106973142Y-80944642D01*
X107068380Y-80944642D01*
X106116000Y-81135119D02*
X106068380Y-81039880D01*
X106068380Y-80801785D01*
X106116000Y-80706547D01*
X106211238Y-80658928D01*
X106306476Y-80658928D01*
X106401714Y-80706547D01*
X106449333Y-80754166D01*
X106496952Y-80849404D01*
X106544571Y-80897023D01*
X106639809Y-80944642D01*
X106687428Y-80944642D01*
X102758761Y-112726214D02*
X100758761Y-112726214D01*
X102187333Y-111726214D01*
X100758761Y-110726214D01*
X102758761Y-110726214D01*
X102758761Y-109297642D02*
X101425428Y-109297642D01*
X100758761Y-109297642D02*
X100854000Y-109440500D01*
X100949238Y-109297642D01*
X100854000Y-109154785D01*
X100758761Y-109297642D01*
X100949238Y-109297642D01*
X102663523Y-106583357D02*
X102758761Y-106869071D01*
X102758761Y-107440500D01*
X102663523Y-107726214D01*
X102568285Y-107869071D01*
X102377809Y-108011928D01*
X101806380Y-108011928D01*
X101615904Y-107869071D01*
X101520666Y-107726214D01*
X101425428Y-107440500D01*
X101425428Y-106869071D01*
X101520666Y-106583357D01*
X102758761Y-105297642D02*
X101425428Y-105297642D01*
X101806380Y-105297642D02*
X101615904Y-105154785D01*
X101520666Y-105011928D01*
X101425428Y-104726214D01*
X101425428Y-104440500D01*
X102758761Y-103011928D02*
X102663523Y-103297642D01*
X102568285Y-103440500D01*
X102377809Y-103583357D01*
X101806380Y-103583357D01*
X101615904Y-103440500D01*
X101520666Y-103297642D01*
X101425428Y-103011928D01*
X101425428Y-102583357D01*
X101520666Y-102297642D01*
X101615904Y-102154785D01*
X101806380Y-102011928D01*
X102377809Y-102011928D01*
X102568285Y-102154785D01*
X102663523Y-102297642D01*
X102758761Y-102583357D01*
X102758761Y-103011928D01*
X101425428Y-100726214D02*
X102758761Y-100726214D01*
X101615904Y-100726214D02*
X101520666Y-100583357D01*
X101425428Y-100297642D01*
X101425428Y-99869071D01*
X101520666Y-99583357D01*
X101711142Y-99440500D01*
X102758761Y-99440500D01*
X100758761Y-97869071D02*
X101139714Y-98154785D01*
X101425428Y-97011928D02*
X101425428Y-95869071D01*
X100758761Y-96583357D02*
X102473047Y-96583357D01*
X102663523Y-96440500D01*
X102758761Y-96154785D01*
X102758761Y-95869071D01*
X100758761Y-93011928D02*
X100758761Y-91297642D01*
X102758761Y-92154785D02*
X100758761Y-92154785D01*
X102663523Y-89154785D02*
X102758761Y-89440500D01*
X102758761Y-90011928D01*
X102663523Y-90297642D01*
X102473047Y-90440500D01*
X101711142Y-90440500D01*
X101520666Y-90297642D01*
X101425428Y-90011928D01*
X101425428Y-89440500D01*
X101520666Y-89154785D01*
X101711142Y-89011928D01*
X101901619Y-89011928D01*
X102092095Y-90440500D01*
X102663523Y-86440500D02*
X102758761Y-86726214D01*
X102758761Y-87297642D01*
X102663523Y-87583357D01*
X102568285Y-87726214D01*
X102377809Y-87869071D01*
X101806380Y-87869071D01*
X101615904Y-87726214D01*
X101520666Y-87583357D01*
X101425428Y-87297642D01*
X101425428Y-86726214D01*
X101520666Y-86440500D01*
X102758761Y-85154785D02*
X100758761Y-85154785D01*
X102758761Y-83869071D02*
X101711142Y-83869071D01*
X101520666Y-84011928D01*
X101425428Y-84297642D01*
X101425428Y-84726214D01*
X101520666Y-85011928D01*
X101615904Y-85154785D01*
X101425428Y-82440500D02*
X102758761Y-82440500D01*
X101615904Y-82440500D02*
X101520666Y-82297642D01*
X101425428Y-82011928D01*
X101425428Y-81583357D01*
X101520666Y-81297642D01*
X101711142Y-81154785D01*
X102758761Y-81154785D01*
X102758761Y-79297642D02*
X102663523Y-79583357D01*
X102568285Y-79726214D01*
X102377809Y-79869071D01*
X101806380Y-79869071D01*
X101615904Y-79726214D01*
X101520666Y-79583357D01*
X101425428Y-79297642D01*
X101425428Y-78869071D01*
X101520666Y-78583357D01*
X101615904Y-78440500D01*
X101806380Y-78297642D01*
X102377809Y-78297642D01*
X102568285Y-78440500D01*
X102663523Y-78583357D01*
X102758761Y-78869071D01*
X102758761Y-79297642D01*
X102758761Y-76583357D02*
X102663523Y-76869071D01*
X102473047Y-77011928D01*
X100758761Y-77011928D01*
X102758761Y-75011928D02*
X102663523Y-75297642D01*
X102568285Y-75440500D01*
X102377809Y-75583357D01*
X101806380Y-75583357D01*
X101615904Y-75440500D01*
X101520666Y-75297642D01*
X101425428Y-75011928D01*
X101425428Y-74583357D01*
X101520666Y-74297642D01*
X101615904Y-74154785D01*
X101806380Y-74011928D01*
X102377809Y-74011928D01*
X102568285Y-74154785D01*
X102663523Y-74297642D01*
X102758761Y-74583357D01*
X102758761Y-75011928D01*
X101425428Y-71440500D02*
X103044476Y-71440500D01*
X103234952Y-71583357D01*
X103330190Y-71726214D01*
X103425428Y-72011928D01*
X103425428Y-72440500D01*
X103330190Y-72726214D01*
X102663523Y-71440500D02*
X102758761Y-71726214D01*
X102758761Y-72297642D01*
X102663523Y-72583357D01*
X102568285Y-72726214D01*
X102377809Y-72869071D01*
X101806380Y-72869071D01*
X101615904Y-72726214D01*
X101520666Y-72583357D01*
X101425428Y-72297642D01*
X101425428Y-71726214D01*
X101520666Y-71440500D01*
X101425428Y-70297642D02*
X102758761Y-69583357D01*
X101425428Y-68869071D02*
X102758761Y-69583357D01*
X103234952Y-69869071D01*
X103330190Y-70011928D01*
X103425428Y-70297642D01*
X102663523Y-67583357D02*
X102758761Y-67583357D01*
X102949238Y-67726214D01*
X103044476Y-67869071D01*
X100758761Y-64011928D02*
X102377809Y-64011928D01*
X102568285Y-63869071D01*
X102663523Y-63726214D01*
X102758761Y-63440500D01*
X102758761Y-62869071D01*
X102663523Y-62583357D01*
X102568285Y-62440500D01*
X102377809Y-62297642D01*
X100758761Y-62297642D01*
X101425428Y-60869071D02*
X102758761Y-60869071D01*
X101615904Y-60869071D02*
X101520666Y-60726214D01*
X101425428Y-60440500D01*
X101425428Y-60011928D01*
X101520666Y-59726214D01*
X101711142Y-59583357D01*
X102758761Y-59583357D01*
X102758761Y-58154785D02*
X101425428Y-58154785D01*
X100758761Y-58154785D02*
X100854000Y-58297642D01*
X100949238Y-58154785D01*
X100854000Y-58011928D01*
X100758761Y-58154785D01*
X100949238Y-58154785D01*
X101425428Y-56726214D02*
X102758761Y-56726214D01*
X101615904Y-56726214D02*
X101520666Y-56583357D01*
X101425428Y-56297642D01*
X101425428Y-55869071D01*
X101520666Y-55583357D01*
X101711142Y-55440500D01*
X102758761Y-55440500D01*
X102663523Y-52726214D02*
X102758761Y-53011928D01*
X102758761Y-53583357D01*
X102663523Y-53869071D01*
X102568285Y-54011928D01*
X102377809Y-54154785D01*
X101806380Y-54154785D01*
X101615904Y-54011928D01*
X101520666Y-53869071D01*
X101425428Y-53583357D01*
X101425428Y-53011928D01*
X101520666Y-52726214D01*
X102568285Y-51440500D02*
X102663523Y-51297642D01*
X102758761Y-51440500D01*
X102663523Y-51583357D01*
X102568285Y-51440500D01*
X102758761Y-51440500D01*
D11*
%TO.C,Q2*%
X141879205Y-95542184D02*
G75*
G02*
X141152000Y-95018000I1122795J2324184D01*
G01*
X144100807Y-95574400D02*
G75*
G03*
X145602000Y-93218000I-1098807J2356400D01*
G01*
X144100807Y-90861600D02*
G75*
G02*
X145602000Y-93218000I-1098807J-2356400D01*
G01*
X141879205Y-90893816D02*
G75*
G03*
X141152000Y-91418000I1122795J-2324184D01*
G01*
X141152000Y-91418000D02*
X141152000Y-95018000D01*
%TO.C,Q1*%
X147086205Y-88303184D02*
G75*
G02*
X146359000Y-87779000I1122795J2324184D01*
G01*
X149307807Y-88335400D02*
G75*
G03*
X150809000Y-85979000I-1098807J2356400D01*
G01*
X149307807Y-83622600D02*
G75*
G02*
X150809000Y-85979000I-1098807J-2356400D01*
G01*
X147086205Y-83654816D02*
G75*
G03*
X146359000Y-84179000I1122795J-2324184D01*
G01*
X146359000Y-84179000D02*
X146359000Y-87779000D01*
%TO.C,J1*%
X179070000Y-73453026D02*
X178435000Y-71929026D01*
X178435000Y-71929026D02*
X179705000Y-71929026D01*
X179705000Y-71929026D02*
X179070000Y-73453026D01*
X172670000Y-101706970D02*
X192970000Y-101706970D01*
X192970000Y-101706970D02*
X192970000Y-73707026D01*
X192970000Y-73707026D02*
X172670000Y-73707026D01*
X172670000Y-73707026D02*
X172670000Y-80244668D01*
X172670000Y-82569332D02*
X172670000Y-84444667D01*
X172670000Y-86769331D02*
X172670000Y-88644666D01*
X172670000Y-90969331D02*
X172670000Y-92844666D01*
X172670000Y-95169330D02*
X172670000Y-101706970D01*
%TO.C,V1*%
X137393000Y-83693000D02*
G75*
G03*
X137393000Y-83693000I-10520000J0D01*
G01*
X130683000Y-83693000D02*
G75*
G03*
X130683000Y-83693000I-3810000J0D01*
G01*
%TO.C,RV1*%
X139580000Y-52070000D02*
X149980000Y-52070000D01*
X149980000Y-52070000D02*
X149980000Y-57150000D01*
X139580000Y-57150000D02*
X149980000Y-57150000D01*
X139580000Y-57150000D02*
X139580000Y-52070000D01*
%TO.C,R11*%
X122385000Y-65903000D02*
X121905000Y-65903000D01*
X121905000Y-65903000D02*
X121905000Y-55763000D01*
X121905000Y-55763000D02*
X122385000Y-55763000D01*
X125265000Y-65903000D02*
X125745000Y-65903000D01*
X125745000Y-65903000D02*
X125745000Y-55763000D01*
X125745000Y-55763000D02*
X125265000Y-55763000D01*
%TO.C,R10*%
X133307000Y-65903000D02*
X132827000Y-65903000D01*
X132827000Y-65903000D02*
X132827000Y-55763000D01*
X132827000Y-55763000D02*
X133307000Y-55763000D01*
X136187000Y-65903000D02*
X136667000Y-65903000D01*
X136667000Y-65903000D02*
X136667000Y-55763000D01*
X136667000Y-55763000D02*
X136187000Y-55763000D01*
%TO.C,R9*%
X111590000Y-65903000D02*
X111110000Y-65903000D01*
X111110000Y-65903000D02*
X111110000Y-55763000D01*
X111110000Y-55763000D02*
X111590000Y-55763000D01*
X114470000Y-65903000D02*
X114950000Y-65903000D01*
X114950000Y-65903000D02*
X114950000Y-55763000D01*
X114950000Y-55763000D02*
X114470000Y-55763000D01*
%TO.C,R8*%
X146074000Y-60484000D02*
X146404000Y-60484000D01*
X146404000Y-60484000D02*
X146404000Y-67024000D01*
X146404000Y-67024000D02*
X146074000Y-67024000D01*
X143994000Y-60484000D02*
X143664000Y-60484000D01*
X143664000Y-60484000D02*
X143664000Y-67024000D01*
X143664000Y-67024000D02*
X143994000Y-67024000D01*
%TO.C,R7*%
X159869000Y-64611000D02*
X159539000Y-64611000D01*
X159539000Y-64611000D02*
X159539000Y-58071000D01*
X159539000Y-58071000D02*
X159869000Y-58071000D01*
X161949000Y-64611000D02*
X162279000Y-64611000D01*
X162279000Y-64611000D02*
X162279000Y-58071000D01*
X162279000Y-58071000D02*
X161949000Y-58071000D01*
%TO.C,R6*%
X150019000Y-69572000D02*
X150019000Y-69242000D01*
X150019000Y-69242000D02*
X156559000Y-69242000D01*
X156559000Y-69242000D02*
X156559000Y-69572000D01*
X150019000Y-71652000D02*
X150019000Y-71982000D01*
X150019000Y-71982000D02*
X156559000Y-71982000D01*
X156559000Y-71982000D02*
X156559000Y-71652000D01*
%TO.C,R5*%
X163171000Y-64611000D02*
X162841000Y-64611000D01*
X162841000Y-64611000D02*
X162841000Y-58071000D01*
X162841000Y-58071000D02*
X163171000Y-58071000D01*
X165251000Y-64611000D02*
X165581000Y-64611000D01*
X165581000Y-64611000D02*
X165581000Y-58071000D01*
X165581000Y-58071000D02*
X165251000Y-58071000D01*
%TO.C,R4*%
X178713000Y-56801000D02*
X179043000Y-56801000D01*
X179043000Y-56801000D02*
X179043000Y-63341000D01*
X179043000Y-63341000D02*
X178713000Y-63341000D01*
X176633000Y-56801000D02*
X176303000Y-56801000D01*
X176303000Y-56801000D02*
X176303000Y-63341000D01*
X176303000Y-63341000D02*
X176633000Y-63341000D01*
%TO.C,R3*%
X155091000Y-58071000D02*
X155421000Y-58071000D01*
X155421000Y-58071000D02*
X155421000Y-64611000D01*
X155421000Y-64611000D02*
X155091000Y-64611000D01*
X153011000Y-58071000D02*
X152681000Y-58071000D01*
X152681000Y-58071000D02*
X152681000Y-64611000D01*
X152681000Y-64611000D02*
X153011000Y-64611000D01*
%TO.C,R2*%
X104068000Y-103743000D02*
X110308000Y-103743000D01*
X110308000Y-103743000D02*
X110308000Y-86503000D01*
X110308000Y-86503000D02*
X104068000Y-86503000D01*
X104068000Y-86503000D02*
X104068000Y-103743000D01*
X107188000Y-103843000D02*
X107188000Y-103743000D01*
X107188000Y-86403000D02*
X107188000Y-86503000D01*
%TO.C,R1*%
X164918000Y-82566000D02*
X158678000Y-82566000D01*
X158678000Y-82566000D02*
X158678000Y-99806000D01*
X158678000Y-99806000D02*
X164918000Y-99806000D01*
X164918000Y-99806000D02*
X164918000Y-82566000D01*
X161798000Y-82466000D02*
X161798000Y-82566000D01*
X161798000Y-99906000D02*
X161798000Y-99806000D01*
%TO.C,Q3*%
X149915000Y-76940000D02*
X149915000Y-80540000D01*
X150642205Y-81064184D02*
G75*
G02*
X149915000Y-80540000I1122795J2324184D01*
G01*
X152863807Y-81096400D02*
G75*
G03*
X154365000Y-78740000I-1098807J2356400D01*
G01*
X152863807Y-76383600D02*
G75*
G02*
X154365000Y-78740000I-1098807J-2356400D01*
G01*
X150642205Y-76415816D02*
G75*
G03*
X149915000Y-76940000I1122795J-2324184D01*
G01*
%TO.C,L2*%
X120658000Y-109284000D02*
X124198000Y-109284000D01*
X124198000Y-109284000D02*
X124198000Y-102044000D01*
X124198000Y-102044000D02*
X120658000Y-102044000D01*
X120658000Y-102044000D02*
X120658000Y-109284000D01*
X122428000Y-110974000D02*
X122428000Y-109284000D01*
X122428000Y-100354000D02*
X122428000Y-102044000D01*
%TO.C,L1*%
X115689000Y-104076000D02*
X112149000Y-104076000D01*
X112149000Y-104076000D02*
X112149000Y-111316000D01*
X112149000Y-111316000D02*
X115689000Y-111316000D01*
X115689000Y-111316000D02*
X115689000Y-104076000D01*
X113919000Y-102386000D02*
X113919000Y-104076000D01*
X113919000Y-113006000D02*
X113919000Y-111316000D01*
%TO.C,D3*%
X136421000Y-98894000D02*
X138661000Y-98894000D01*
X138661000Y-98894000D02*
X138661000Y-94654000D01*
X138661000Y-94654000D02*
X136421000Y-94654000D01*
X136421000Y-94654000D02*
X136421000Y-98894000D01*
X137541000Y-99544000D02*
X137541000Y-98894000D01*
X137541000Y-94004000D02*
X137541000Y-94654000D01*
X136421000Y-98174000D02*
X138661000Y-98174000D01*
X136421000Y-98054000D02*
X138661000Y-98054000D01*
X136421000Y-98294000D02*
X138661000Y-98294000D01*
%TO.C,D2*%
X156487000Y-63461000D02*
X158727000Y-63461000D01*
X158727000Y-63461000D02*
X158727000Y-59221000D01*
X158727000Y-59221000D02*
X156487000Y-59221000D01*
X156487000Y-59221000D02*
X156487000Y-63461000D01*
X157607000Y-64111000D02*
X157607000Y-63461000D01*
X157607000Y-58571000D02*
X157607000Y-59221000D01*
X156487000Y-62741000D02*
X158727000Y-62741000D01*
X156487000Y-62621000D02*
X158727000Y-62621000D01*
X156487000Y-62861000D02*
X158727000Y-62861000D01*
%TO.C,D1*%
X114912000Y-92114000D02*
X112672000Y-92114000D01*
X112672000Y-92114000D02*
X112672000Y-96354000D01*
X112672000Y-96354000D02*
X114912000Y-96354000D01*
X114912000Y-96354000D02*
X114912000Y-92114000D01*
X113792000Y-91464000D02*
X113792000Y-92114000D01*
X113792000Y-97004000D02*
X113792000Y-96354000D01*
X114912000Y-92834000D02*
X112672000Y-92834000D01*
X114912000Y-92954000D02*
X112672000Y-92954000D01*
X114912000Y-92714000D02*
X112672000Y-92714000D01*
%TO.C,C9*%
X135438000Y-108811000D02*
G75*
G03*
X135438000Y-108811000I-4120000J0D01*
G01*
X135398000Y-108811000D02*
X127238000Y-108811000D01*
X135398000Y-108851000D02*
X127238000Y-108851000D01*
X135398000Y-108891000D02*
X127238000Y-108891000D01*
X135397000Y-108931000D02*
X127239000Y-108931000D01*
X135395000Y-108971000D02*
X127241000Y-108971000D01*
X135394000Y-109011000D02*
X127242000Y-109011000D01*
X135392000Y-109051000D02*
X127244000Y-109051000D01*
X135389000Y-109091000D02*
X127247000Y-109091000D01*
X135386000Y-109131000D02*
X127250000Y-109131000D01*
X135383000Y-109171000D02*
X127253000Y-109171000D01*
X135379000Y-109211000D02*
X127257000Y-109211000D01*
X135375000Y-109251000D02*
X127261000Y-109251000D01*
X135370000Y-109291000D02*
X127266000Y-109291000D01*
X135366000Y-109331000D02*
X127270000Y-109331000D01*
X135360000Y-109371000D02*
X127276000Y-109371000D01*
X135355000Y-109411000D02*
X127281000Y-109411000D01*
X135348000Y-109451000D02*
X127288000Y-109451000D01*
X135342000Y-109491000D02*
X127294000Y-109491000D01*
X135335000Y-109532000D02*
X132358000Y-109532000D01*
X130278000Y-109532000D02*
X127301000Y-109532000D01*
X135328000Y-109572000D02*
X132358000Y-109572000D01*
X130278000Y-109572000D02*
X127308000Y-109572000D01*
X135320000Y-109612000D02*
X132358000Y-109612000D01*
X130278000Y-109612000D02*
X127316000Y-109612000D01*
X135312000Y-109652000D02*
X132358000Y-109652000D01*
X130278000Y-109652000D02*
X127324000Y-109652000D01*
X135303000Y-109692000D02*
X132358000Y-109692000D01*
X130278000Y-109692000D02*
X127333000Y-109692000D01*
X135294000Y-109732000D02*
X132358000Y-109732000D01*
X130278000Y-109732000D02*
X127342000Y-109732000D01*
X135285000Y-109772000D02*
X132358000Y-109772000D01*
X130278000Y-109772000D02*
X127351000Y-109772000D01*
X135275000Y-109812000D02*
X132358000Y-109812000D01*
X130278000Y-109812000D02*
X127361000Y-109812000D01*
X135265000Y-109852000D02*
X132358000Y-109852000D01*
X130278000Y-109852000D02*
X127371000Y-109852000D01*
X135254000Y-109892000D02*
X132358000Y-109892000D01*
X130278000Y-109892000D02*
X127382000Y-109892000D01*
X135243000Y-109932000D02*
X132358000Y-109932000D01*
X130278000Y-109932000D02*
X127393000Y-109932000D01*
X135232000Y-109972000D02*
X132358000Y-109972000D01*
X130278000Y-109972000D02*
X127404000Y-109972000D01*
X135220000Y-110012000D02*
X132358000Y-110012000D01*
X130278000Y-110012000D02*
X127416000Y-110012000D01*
X135207000Y-110052000D02*
X132358000Y-110052000D01*
X130278000Y-110052000D02*
X127429000Y-110052000D01*
X135195000Y-110092000D02*
X132358000Y-110092000D01*
X130278000Y-110092000D02*
X127441000Y-110092000D01*
X135181000Y-110132000D02*
X132358000Y-110132000D01*
X130278000Y-110132000D02*
X127455000Y-110132000D01*
X135168000Y-110172000D02*
X132358000Y-110172000D01*
X130278000Y-110172000D02*
X127468000Y-110172000D01*
X135153000Y-110212000D02*
X132358000Y-110212000D01*
X130278000Y-110212000D02*
X127483000Y-110212000D01*
X135139000Y-110252000D02*
X132358000Y-110252000D01*
X130278000Y-110252000D02*
X127497000Y-110252000D01*
X135123000Y-110292000D02*
X132358000Y-110292000D01*
X130278000Y-110292000D02*
X127513000Y-110292000D01*
X135108000Y-110332000D02*
X132358000Y-110332000D01*
X130278000Y-110332000D02*
X127528000Y-110332000D01*
X135092000Y-110372000D02*
X132358000Y-110372000D01*
X130278000Y-110372000D02*
X127544000Y-110372000D01*
X135075000Y-110412000D02*
X132358000Y-110412000D01*
X130278000Y-110412000D02*
X127561000Y-110412000D01*
X135058000Y-110452000D02*
X132358000Y-110452000D01*
X130278000Y-110452000D02*
X127578000Y-110452000D01*
X135040000Y-110492000D02*
X132358000Y-110492000D01*
X130278000Y-110492000D02*
X127596000Y-110492000D01*
X135022000Y-110532000D02*
X132358000Y-110532000D01*
X130278000Y-110532000D02*
X127614000Y-110532000D01*
X135004000Y-110572000D02*
X132358000Y-110572000D01*
X130278000Y-110572000D02*
X127632000Y-110572000D01*
X134984000Y-110612000D02*
X132358000Y-110612000D01*
X130278000Y-110612000D02*
X127652000Y-110612000D01*
X134965000Y-110652000D02*
X132358000Y-110652000D01*
X130278000Y-110652000D02*
X127671000Y-110652000D01*
X134945000Y-110692000D02*
X132358000Y-110692000D01*
X130278000Y-110692000D02*
X127691000Y-110692000D01*
X134924000Y-110732000D02*
X132358000Y-110732000D01*
X130278000Y-110732000D02*
X127712000Y-110732000D01*
X134902000Y-110772000D02*
X132358000Y-110772000D01*
X130278000Y-110772000D02*
X127734000Y-110772000D01*
X134880000Y-110812000D02*
X132358000Y-110812000D01*
X130278000Y-110812000D02*
X127756000Y-110812000D01*
X134858000Y-110852000D02*
X132358000Y-110852000D01*
X130278000Y-110852000D02*
X127778000Y-110852000D01*
X134835000Y-110892000D02*
X132358000Y-110892000D01*
X130278000Y-110892000D02*
X127801000Y-110892000D01*
X134811000Y-110932000D02*
X132358000Y-110932000D01*
X130278000Y-110932000D02*
X127825000Y-110932000D01*
X134787000Y-110972000D02*
X132358000Y-110972000D01*
X130278000Y-110972000D02*
X127849000Y-110972000D01*
X134762000Y-111012000D02*
X132358000Y-111012000D01*
X130278000Y-111012000D02*
X127874000Y-111012000D01*
X134736000Y-111052000D02*
X132358000Y-111052000D01*
X130278000Y-111052000D02*
X127900000Y-111052000D01*
X134710000Y-111092000D02*
X132358000Y-111092000D01*
X130278000Y-111092000D02*
X127926000Y-111092000D01*
X134683000Y-111132000D02*
X132358000Y-111132000D01*
X130278000Y-111132000D02*
X127953000Y-111132000D01*
X134656000Y-111172000D02*
X132358000Y-111172000D01*
X130278000Y-111172000D02*
X127980000Y-111172000D01*
X134627000Y-111212000D02*
X132358000Y-111212000D01*
X130278000Y-111212000D02*
X128009000Y-111212000D01*
X134598000Y-111252000D02*
X132358000Y-111252000D01*
X130278000Y-111252000D02*
X128038000Y-111252000D01*
X134568000Y-111292000D02*
X132358000Y-111292000D01*
X130278000Y-111292000D02*
X128068000Y-111292000D01*
X134538000Y-111332000D02*
X132358000Y-111332000D01*
X130278000Y-111332000D02*
X128098000Y-111332000D01*
X134507000Y-111372000D02*
X132358000Y-111372000D01*
X130278000Y-111372000D02*
X128129000Y-111372000D01*
X134474000Y-111412000D02*
X132358000Y-111412000D01*
X130278000Y-111412000D02*
X128162000Y-111412000D01*
X134442000Y-111452000D02*
X132358000Y-111452000D01*
X130278000Y-111452000D02*
X128194000Y-111452000D01*
X134408000Y-111492000D02*
X132358000Y-111492000D01*
X130278000Y-111492000D02*
X128228000Y-111492000D01*
X134373000Y-111532000D02*
X132358000Y-111532000D01*
X130278000Y-111532000D02*
X128263000Y-111532000D01*
X134337000Y-111572000D02*
X132358000Y-111572000D01*
X130278000Y-111572000D02*
X128299000Y-111572000D01*
X134301000Y-111612000D02*
X128335000Y-111612000D01*
X134263000Y-111652000D02*
X128373000Y-111652000D01*
X134225000Y-111692000D02*
X128411000Y-111692000D01*
X134185000Y-111732000D02*
X128451000Y-111732000D01*
X134144000Y-111772000D02*
X128492000Y-111772000D01*
X134102000Y-111812000D02*
X128534000Y-111812000D01*
X134059000Y-111852000D02*
X128577000Y-111852000D01*
X134015000Y-111892000D02*
X128621000Y-111892000D01*
X133969000Y-111932000D02*
X128667000Y-111932000D01*
X133922000Y-111972000D02*
X128714000Y-111972000D01*
X133874000Y-112012000D02*
X128762000Y-112012000D01*
X133823000Y-112052000D02*
X128813000Y-112052000D01*
X133772000Y-112092000D02*
X128864000Y-112092000D01*
X133718000Y-112132000D02*
X128918000Y-112132000D01*
X133663000Y-112172000D02*
X128973000Y-112172000D01*
X133605000Y-112212000D02*
X129031000Y-112212000D01*
X133546000Y-112252000D02*
X129090000Y-112252000D01*
X133484000Y-112292000D02*
X129152000Y-112292000D01*
X133420000Y-112332000D02*
X129216000Y-112332000D01*
X133352000Y-112372000D02*
X129284000Y-112372000D01*
X133282000Y-112412000D02*
X129354000Y-112412000D01*
X133208000Y-112452000D02*
X129428000Y-112452000D01*
X133131000Y-112492000D02*
X129505000Y-112492000D01*
X133049000Y-112532000D02*
X129587000Y-112532000D01*
X132963000Y-112572000D02*
X129673000Y-112572000D01*
X132870000Y-112612000D02*
X129766000Y-112612000D01*
X132771000Y-112652000D02*
X129865000Y-112652000D01*
X132664000Y-112692000D02*
X129972000Y-112692000D01*
X132547000Y-112732000D02*
X130089000Y-112732000D01*
X132416000Y-112772000D02*
X130220000Y-112772000D01*
X132266000Y-112812000D02*
X130370000Y-112812000D01*
X132086000Y-112852000D02*
X130550000Y-112852000D01*
X131851000Y-112892000D02*
X130785000Y-112892000D01*
X133633000Y-104401302D02*
X133633000Y-105201302D01*
X134033000Y-104801302D02*
X133233000Y-104801302D01*
%TO.C,C8*%
X172657000Y-57404000D02*
G75*
G03*
X172657000Y-57404000I-2620000J0D01*
G01*
X170037000Y-58444000D02*
X170037000Y-59984000D01*
X170037000Y-54824000D02*
X170037000Y-56364000D01*
X170077000Y-58444000D02*
X170077000Y-59984000D01*
X170077000Y-54824000D02*
X170077000Y-56364000D01*
X170117000Y-54825000D02*
X170117000Y-56364000D01*
X170117000Y-58444000D02*
X170117000Y-59983000D01*
X170157000Y-54826000D02*
X170157000Y-56364000D01*
X170157000Y-58444000D02*
X170157000Y-59982000D01*
X170197000Y-54828000D02*
X170197000Y-56364000D01*
X170197000Y-58444000D02*
X170197000Y-59980000D01*
X170237000Y-54831000D02*
X170237000Y-56364000D01*
X170237000Y-58444000D02*
X170237000Y-59977000D01*
X170277000Y-54835000D02*
X170277000Y-56364000D01*
X170277000Y-58444000D02*
X170277000Y-59973000D01*
X170317000Y-54839000D02*
X170317000Y-56364000D01*
X170317000Y-58444000D02*
X170317000Y-59969000D01*
X170357000Y-54843000D02*
X170357000Y-56364000D01*
X170357000Y-58444000D02*
X170357000Y-59965000D01*
X170397000Y-54848000D02*
X170397000Y-56364000D01*
X170397000Y-58444000D02*
X170397000Y-59960000D01*
X170437000Y-54854000D02*
X170437000Y-56364000D01*
X170437000Y-58444000D02*
X170437000Y-59954000D01*
X170477000Y-54861000D02*
X170477000Y-56364000D01*
X170477000Y-58444000D02*
X170477000Y-59947000D01*
X170517000Y-54868000D02*
X170517000Y-56364000D01*
X170517000Y-58444000D02*
X170517000Y-59940000D01*
X170557000Y-54876000D02*
X170557000Y-56364000D01*
X170557000Y-58444000D02*
X170557000Y-59932000D01*
X170597000Y-54884000D02*
X170597000Y-56364000D01*
X170597000Y-58444000D02*
X170597000Y-59924000D01*
X170637000Y-54893000D02*
X170637000Y-56364000D01*
X170637000Y-58444000D02*
X170637000Y-59915000D01*
X170677000Y-54903000D02*
X170677000Y-56364000D01*
X170677000Y-58444000D02*
X170677000Y-59905000D01*
X170717000Y-54913000D02*
X170717000Y-56364000D01*
X170717000Y-58444000D02*
X170717000Y-59895000D01*
X170758000Y-54924000D02*
X170758000Y-56364000D01*
X170758000Y-58444000D02*
X170758000Y-59884000D01*
X170798000Y-54936000D02*
X170798000Y-56364000D01*
X170798000Y-58444000D02*
X170798000Y-59872000D01*
X170838000Y-54949000D02*
X170838000Y-56364000D01*
X170838000Y-58444000D02*
X170838000Y-59859000D01*
X170878000Y-54962000D02*
X170878000Y-56364000D01*
X170878000Y-58444000D02*
X170878000Y-59846000D01*
X170918000Y-54976000D02*
X170918000Y-56364000D01*
X170918000Y-58444000D02*
X170918000Y-59832000D01*
X170958000Y-54990000D02*
X170958000Y-56364000D01*
X170958000Y-58444000D02*
X170958000Y-59818000D01*
X170998000Y-55006000D02*
X170998000Y-56364000D01*
X170998000Y-58444000D02*
X170998000Y-59802000D01*
X171038000Y-55022000D02*
X171038000Y-56364000D01*
X171038000Y-58444000D02*
X171038000Y-59786000D01*
X171078000Y-55039000D02*
X171078000Y-56364000D01*
X171078000Y-58444000D02*
X171078000Y-59769000D01*
X171118000Y-55056000D02*
X171118000Y-56364000D01*
X171118000Y-58444000D02*
X171118000Y-59752000D01*
X171158000Y-55075000D02*
X171158000Y-56364000D01*
X171158000Y-58444000D02*
X171158000Y-59733000D01*
X171198000Y-55094000D02*
X171198000Y-56364000D01*
X171198000Y-58444000D02*
X171198000Y-59714000D01*
X171238000Y-55114000D02*
X171238000Y-56364000D01*
X171238000Y-58444000D02*
X171238000Y-59694000D01*
X171278000Y-55136000D02*
X171278000Y-56364000D01*
X171278000Y-58444000D02*
X171278000Y-59672000D01*
X171318000Y-55157000D02*
X171318000Y-56364000D01*
X171318000Y-58444000D02*
X171318000Y-59651000D01*
X171358000Y-55180000D02*
X171358000Y-56364000D01*
X171358000Y-58444000D02*
X171358000Y-59628000D01*
X171398000Y-55204000D02*
X171398000Y-56364000D01*
X171398000Y-58444000D02*
X171398000Y-59604000D01*
X171438000Y-55229000D02*
X171438000Y-56364000D01*
X171438000Y-58444000D02*
X171438000Y-59579000D01*
X171478000Y-55255000D02*
X171478000Y-56364000D01*
X171478000Y-58444000D02*
X171478000Y-59553000D01*
X171518000Y-55282000D02*
X171518000Y-56364000D01*
X171518000Y-58444000D02*
X171518000Y-59526000D01*
X171558000Y-55309000D02*
X171558000Y-56364000D01*
X171558000Y-58444000D02*
X171558000Y-59499000D01*
X171598000Y-55339000D02*
X171598000Y-56364000D01*
X171598000Y-58444000D02*
X171598000Y-59469000D01*
X171638000Y-55369000D02*
X171638000Y-56364000D01*
X171638000Y-58444000D02*
X171638000Y-59439000D01*
X171678000Y-55400000D02*
X171678000Y-56364000D01*
X171678000Y-58444000D02*
X171678000Y-59408000D01*
X171718000Y-55433000D02*
X171718000Y-56364000D01*
X171718000Y-58444000D02*
X171718000Y-59375000D01*
X171758000Y-55467000D02*
X171758000Y-56364000D01*
X171758000Y-58444000D02*
X171758000Y-59341000D01*
X171798000Y-55503000D02*
X171798000Y-56364000D01*
X171798000Y-58444000D02*
X171798000Y-59305000D01*
X171838000Y-55540000D02*
X171838000Y-56364000D01*
X171838000Y-58444000D02*
X171838000Y-59268000D01*
X171878000Y-55578000D02*
X171878000Y-56364000D01*
X171878000Y-58444000D02*
X171878000Y-59230000D01*
X171918000Y-55619000D02*
X171918000Y-56364000D01*
X171918000Y-58444000D02*
X171918000Y-59189000D01*
X171958000Y-55661000D02*
X171958000Y-56364000D01*
X171958000Y-58444000D02*
X171958000Y-59147000D01*
X171998000Y-55705000D02*
X171998000Y-56364000D01*
X171998000Y-58444000D02*
X171998000Y-59103000D01*
X172038000Y-55751000D02*
X172038000Y-56364000D01*
X172038000Y-58444000D02*
X172038000Y-59057000D01*
X172078000Y-55799000D02*
X172078000Y-59009000D01*
X172118000Y-55850000D02*
X172118000Y-58958000D01*
X172158000Y-55904000D02*
X172158000Y-58904000D01*
X172198000Y-55961000D02*
X172198000Y-58847000D01*
X172238000Y-56021000D02*
X172238000Y-58787000D01*
X172278000Y-56085000D02*
X172278000Y-58723000D01*
X172318000Y-56153000D02*
X172318000Y-58655000D01*
X172358000Y-56226000D02*
X172358000Y-58582000D01*
X172398000Y-56306000D02*
X172398000Y-58502000D01*
X172438000Y-56393000D02*
X172438000Y-58415000D01*
X172478000Y-56489000D02*
X172478000Y-58319000D01*
X172518000Y-56599000D02*
X172518000Y-58209000D01*
X172558000Y-56727000D02*
X172558000Y-58081000D01*
X172598000Y-56886000D02*
X172598000Y-57922000D01*
X172638000Y-57120000D02*
X172638000Y-57688000D01*
X167232225Y-55929000D02*
X167732225Y-55929000D01*
X167482225Y-55679000D02*
X167482225Y-56179000D01*
%TO.C,C7*%
X116482000Y-110517000D02*
X116482000Y-105677000D01*
X118722000Y-110517000D02*
X118722000Y-105677000D01*
X116482000Y-110517000D02*
X118722000Y-110517000D01*
X116482000Y-105677000D02*
X118722000Y-105677000D01*
%TO.C,C6*%
X138330000Y-111710000D02*
X138330000Y-104270000D01*
X141070000Y-111710000D02*
X141070000Y-104270000D01*
X138330000Y-111710000D02*
X141070000Y-111710000D01*
X138330000Y-104270000D02*
X141070000Y-104270000D01*
%TO.C,C5*%
X148686000Y-78994000D02*
G75*
G03*
X148686000Y-78994000I-2620000J0D01*
G01*
X146066000Y-77954000D02*
X146066000Y-76414000D01*
X146066000Y-81574000D02*
X146066000Y-80034000D01*
X146026000Y-77954000D02*
X146026000Y-76414000D01*
X146026000Y-81574000D02*
X146026000Y-80034000D01*
X145986000Y-81573000D02*
X145986000Y-80034000D01*
X145986000Y-77954000D02*
X145986000Y-76415000D01*
X145946000Y-81572000D02*
X145946000Y-80034000D01*
X145946000Y-77954000D02*
X145946000Y-76416000D01*
X145906000Y-81570000D02*
X145906000Y-80034000D01*
X145906000Y-77954000D02*
X145906000Y-76418000D01*
X145866000Y-81567000D02*
X145866000Y-80034000D01*
X145866000Y-77954000D02*
X145866000Y-76421000D01*
X145826000Y-81563000D02*
X145826000Y-80034000D01*
X145826000Y-77954000D02*
X145826000Y-76425000D01*
X145786000Y-81559000D02*
X145786000Y-80034000D01*
X145786000Y-77954000D02*
X145786000Y-76429000D01*
X145746000Y-81555000D02*
X145746000Y-80034000D01*
X145746000Y-77954000D02*
X145746000Y-76433000D01*
X145706000Y-81550000D02*
X145706000Y-80034000D01*
X145706000Y-77954000D02*
X145706000Y-76438000D01*
X145666000Y-81544000D02*
X145666000Y-80034000D01*
X145666000Y-77954000D02*
X145666000Y-76444000D01*
X145626000Y-81537000D02*
X145626000Y-80034000D01*
X145626000Y-77954000D02*
X145626000Y-76451000D01*
X145586000Y-81530000D02*
X145586000Y-80034000D01*
X145586000Y-77954000D02*
X145586000Y-76458000D01*
X145546000Y-81522000D02*
X145546000Y-80034000D01*
X145546000Y-77954000D02*
X145546000Y-76466000D01*
X145506000Y-81514000D02*
X145506000Y-80034000D01*
X145506000Y-77954000D02*
X145506000Y-76474000D01*
X145466000Y-81505000D02*
X145466000Y-80034000D01*
X145466000Y-77954000D02*
X145466000Y-76483000D01*
X145426000Y-81495000D02*
X145426000Y-80034000D01*
X145426000Y-77954000D02*
X145426000Y-76493000D01*
X145386000Y-81485000D02*
X145386000Y-80034000D01*
X145386000Y-77954000D02*
X145386000Y-76503000D01*
X145345000Y-81474000D02*
X145345000Y-80034000D01*
X145345000Y-77954000D02*
X145345000Y-76514000D01*
X145305000Y-81462000D02*
X145305000Y-80034000D01*
X145305000Y-77954000D02*
X145305000Y-76526000D01*
X145265000Y-81449000D02*
X145265000Y-80034000D01*
X145265000Y-77954000D02*
X145265000Y-76539000D01*
X145225000Y-81436000D02*
X145225000Y-80034000D01*
X145225000Y-77954000D02*
X145225000Y-76552000D01*
X145185000Y-81422000D02*
X145185000Y-80034000D01*
X145185000Y-77954000D02*
X145185000Y-76566000D01*
X145145000Y-81408000D02*
X145145000Y-80034000D01*
X145145000Y-77954000D02*
X145145000Y-76580000D01*
X145105000Y-81392000D02*
X145105000Y-80034000D01*
X145105000Y-77954000D02*
X145105000Y-76596000D01*
X145065000Y-81376000D02*
X145065000Y-80034000D01*
X145065000Y-77954000D02*
X145065000Y-76612000D01*
X145025000Y-81359000D02*
X145025000Y-80034000D01*
X145025000Y-77954000D02*
X145025000Y-76629000D01*
X144985000Y-81342000D02*
X144985000Y-80034000D01*
X144985000Y-77954000D02*
X144985000Y-76646000D01*
X144945000Y-81323000D02*
X144945000Y-80034000D01*
X144945000Y-77954000D02*
X144945000Y-76665000D01*
X144905000Y-81304000D02*
X144905000Y-80034000D01*
X144905000Y-77954000D02*
X144905000Y-76684000D01*
X144865000Y-81284000D02*
X144865000Y-80034000D01*
X144865000Y-77954000D02*
X144865000Y-76704000D01*
X144825000Y-81262000D02*
X144825000Y-80034000D01*
X144825000Y-77954000D02*
X144825000Y-76726000D01*
X144785000Y-81241000D02*
X144785000Y-80034000D01*
X144785000Y-77954000D02*
X144785000Y-76747000D01*
X144745000Y-81218000D02*
X144745000Y-80034000D01*
X144745000Y-77954000D02*
X144745000Y-76770000D01*
X144705000Y-81194000D02*
X144705000Y-80034000D01*
X144705000Y-77954000D02*
X144705000Y-76794000D01*
X144665000Y-81169000D02*
X144665000Y-80034000D01*
X144665000Y-77954000D02*
X144665000Y-76819000D01*
X144625000Y-81143000D02*
X144625000Y-80034000D01*
X144625000Y-77954000D02*
X144625000Y-76845000D01*
X144585000Y-81116000D02*
X144585000Y-80034000D01*
X144585000Y-77954000D02*
X144585000Y-76872000D01*
X144545000Y-81089000D02*
X144545000Y-80034000D01*
X144545000Y-77954000D02*
X144545000Y-76899000D01*
X144505000Y-81059000D02*
X144505000Y-80034000D01*
X144505000Y-77954000D02*
X144505000Y-76929000D01*
X144465000Y-81029000D02*
X144465000Y-80034000D01*
X144465000Y-77954000D02*
X144465000Y-76959000D01*
X144425000Y-80998000D02*
X144425000Y-80034000D01*
X144425000Y-77954000D02*
X144425000Y-76990000D01*
X144385000Y-80965000D02*
X144385000Y-80034000D01*
X144385000Y-77954000D02*
X144385000Y-77023000D01*
X144345000Y-80931000D02*
X144345000Y-80034000D01*
X144345000Y-77954000D02*
X144345000Y-77057000D01*
X144305000Y-80895000D02*
X144305000Y-80034000D01*
X144305000Y-77954000D02*
X144305000Y-77093000D01*
X144265000Y-80858000D02*
X144265000Y-80034000D01*
X144265000Y-77954000D02*
X144265000Y-77130000D01*
X144225000Y-80820000D02*
X144225000Y-80034000D01*
X144225000Y-77954000D02*
X144225000Y-77168000D01*
X144185000Y-80779000D02*
X144185000Y-80034000D01*
X144185000Y-77954000D02*
X144185000Y-77209000D01*
X144145000Y-80737000D02*
X144145000Y-80034000D01*
X144145000Y-77954000D02*
X144145000Y-77251000D01*
X144105000Y-80693000D02*
X144105000Y-80034000D01*
X144105000Y-77954000D02*
X144105000Y-77295000D01*
X144065000Y-80647000D02*
X144065000Y-80034000D01*
X144065000Y-77954000D02*
X144065000Y-77341000D01*
X144025000Y-80599000D02*
X144025000Y-77389000D01*
X143985000Y-80548000D02*
X143985000Y-77440000D01*
X143945000Y-80494000D02*
X143945000Y-77494000D01*
X143905000Y-80437000D02*
X143905000Y-77551000D01*
X143865000Y-80377000D02*
X143865000Y-77611000D01*
X143825000Y-80313000D02*
X143825000Y-77675000D01*
X143785000Y-80245000D02*
X143785000Y-77743000D01*
X143745000Y-80172000D02*
X143745000Y-77816000D01*
X143705000Y-80092000D02*
X143705000Y-77896000D01*
X143665000Y-80005000D02*
X143665000Y-77983000D01*
X143625000Y-79909000D02*
X143625000Y-78079000D01*
X143585000Y-79799000D02*
X143585000Y-78189000D01*
X143545000Y-79671000D02*
X143545000Y-78317000D01*
X143505000Y-79512000D02*
X143505000Y-78476000D01*
X143465000Y-79278000D02*
X143465000Y-78710000D01*
X148870775Y-80469000D02*
X148370775Y-80469000D01*
X148620775Y-80719000D02*
X148620775Y-80219000D01*
%TO.C,C4*%
X175081000Y-66929000D02*
G75*
G03*
X175081000Y-66929000I-3270000J0D01*
G01*
X171811000Y-63699000D02*
X171811000Y-70159000D01*
X171851000Y-63699000D02*
X171851000Y-70159000D01*
X171891000Y-63699000D02*
X171891000Y-70159000D01*
X171931000Y-63701000D02*
X171931000Y-70157000D01*
X171971000Y-63702000D02*
X171971000Y-70156000D01*
X172011000Y-63705000D02*
X172011000Y-70153000D01*
X172051000Y-63707000D02*
X172051000Y-65889000D01*
X172051000Y-67969000D02*
X172051000Y-70151000D01*
X172091000Y-63711000D02*
X172091000Y-65889000D01*
X172091000Y-67969000D02*
X172091000Y-70147000D01*
X172131000Y-63714000D02*
X172131000Y-65889000D01*
X172131000Y-67969000D02*
X172131000Y-70144000D01*
X172171000Y-63718000D02*
X172171000Y-65889000D01*
X172171000Y-67969000D02*
X172171000Y-70140000D01*
X172211000Y-63723000D02*
X172211000Y-65889000D01*
X172211000Y-67969000D02*
X172211000Y-70135000D01*
X172251000Y-63728000D02*
X172251000Y-65889000D01*
X172251000Y-67969000D02*
X172251000Y-70130000D01*
X172291000Y-63734000D02*
X172291000Y-65889000D01*
X172291000Y-67969000D02*
X172291000Y-70124000D01*
X172331000Y-63740000D02*
X172331000Y-65889000D01*
X172331000Y-67969000D02*
X172331000Y-70118000D01*
X172371000Y-63747000D02*
X172371000Y-65889000D01*
X172371000Y-67969000D02*
X172371000Y-70111000D01*
X172411000Y-63754000D02*
X172411000Y-65889000D01*
X172411000Y-67969000D02*
X172411000Y-70104000D01*
X172451000Y-63762000D02*
X172451000Y-65889000D01*
X172451000Y-67969000D02*
X172451000Y-70096000D01*
X172491000Y-63770000D02*
X172491000Y-65889000D01*
X172491000Y-67969000D02*
X172491000Y-70088000D01*
X172532000Y-63779000D02*
X172532000Y-65889000D01*
X172532000Y-67969000D02*
X172532000Y-70079000D01*
X172572000Y-63788000D02*
X172572000Y-65889000D01*
X172572000Y-67969000D02*
X172572000Y-70070000D01*
X172612000Y-63798000D02*
X172612000Y-65889000D01*
X172612000Y-67969000D02*
X172612000Y-70060000D01*
X172652000Y-63808000D02*
X172652000Y-65889000D01*
X172652000Y-67969000D02*
X172652000Y-70050000D01*
X172692000Y-63819000D02*
X172692000Y-65889000D01*
X172692000Y-67969000D02*
X172692000Y-70039000D01*
X172732000Y-63831000D02*
X172732000Y-65889000D01*
X172732000Y-67969000D02*
X172732000Y-70027000D01*
X172772000Y-63843000D02*
X172772000Y-65889000D01*
X172772000Y-67969000D02*
X172772000Y-70015000D01*
X172812000Y-63855000D02*
X172812000Y-65889000D01*
X172812000Y-67969000D02*
X172812000Y-70003000D01*
X172852000Y-63868000D02*
X172852000Y-65889000D01*
X172852000Y-67969000D02*
X172852000Y-69990000D01*
X172892000Y-63882000D02*
X172892000Y-65889000D01*
X172892000Y-67969000D02*
X172892000Y-69976000D01*
X172932000Y-63896000D02*
X172932000Y-65889000D01*
X172932000Y-67969000D02*
X172932000Y-69962000D01*
X172972000Y-63911000D02*
X172972000Y-65889000D01*
X172972000Y-67969000D02*
X172972000Y-69947000D01*
X173012000Y-63927000D02*
X173012000Y-65889000D01*
X173012000Y-67969000D02*
X173012000Y-69931000D01*
X173052000Y-63943000D02*
X173052000Y-65889000D01*
X173052000Y-67969000D02*
X173052000Y-69915000D01*
X173092000Y-63959000D02*
X173092000Y-65889000D01*
X173092000Y-67969000D02*
X173092000Y-69899000D01*
X173132000Y-63977000D02*
X173132000Y-65889000D01*
X173132000Y-67969000D02*
X173132000Y-69881000D01*
X173172000Y-63995000D02*
X173172000Y-65889000D01*
X173172000Y-67969000D02*
X173172000Y-69863000D01*
X173212000Y-64013000D02*
X173212000Y-65889000D01*
X173212000Y-67969000D02*
X173212000Y-69845000D01*
X173252000Y-64033000D02*
X173252000Y-65889000D01*
X173252000Y-67969000D02*
X173252000Y-69825000D01*
X173292000Y-64053000D02*
X173292000Y-65889000D01*
X173292000Y-67969000D02*
X173292000Y-69805000D01*
X173332000Y-64073000D02*
X173332000Y-65889000D01*
X173332000Y-67969000D02*
X173332000Y-69785000D01*
X173372000Y-64095000D02*
X173372000Y-65889000D01*
X173372000Y-67969000D02*
X173372000Y-69763000D01*
X173412000Y-64117000D02*
X173412000Y-65889000D01*
X173412000Y-67969000D02*
X173412000Y-69741000D01*
X173452000Y-64139000D02*
X173452000Y-65889000D01*
X173452000Y-67969000D02*
X173452000Y-69719000D01*
X173492000Y-64163000D02*
X173492000Y-65889000D01*
X173492000Y-67969000D02*
X173492000Y-69695000D01*
X173532000Y-64187000D02*
X173532000Y-65889000D01*
X173532000Y-67969000D02*
X173532000Y-69671000D01*
X173572000Y-64213000D02*
X173572000Y-65889000D01*
X173572000Y-67969000D02*
X173572000Y-69645000D01*
X173612000Y-64239000D02*
X173612000Y-65889000D01*
X173612000Y-67969000D02*
X173612000Y-69619000D01*
X173652000Y-64265000D02*
X173652000Y-65889000D01*
X173652000Y-67969000D02*
X173652000Y-69593000D01*
X173692000Y-64293000D02*
X173692000Y-65889000D01*
X173692000Y-67969000D02*
X173692000Y-69565000D01*
X173732000Y-64322000D02*
X173732000Y-65889000D01*
X173732000Y-67969000D02*
X173732000Y-69536000D01*
X173772000Y-64351000D02*
X173772000Y-65889000D01*
X173772000Y-67969000D02*
X173772000Y-69507000D01*
X173812000Y-64381000D02*
X173812000Y-65889000D01*
X173812000Y-67969000D02*
X173812000Y-69477000D01*
X173852000Y-64413000D02*
X173852000Y-65889000D01*
X173852000Y-67969000D02*
X173852000Y-69445000D01*
X173892000Y-64445000D02*
X173892000Y-65889000D01*
X173892000Y-67969000D02*
X173892000Y-69413000D01*
X173932000Y-64479000D02*
X173932000Y-65889000D01*
X173932000Y-67969000D02*
X173932000Y-69379000D01*
X173972000Y-64513000D02*
X173972000Y-65889000D01*
X173972000Y-67969000D02*
X173972000Y-69345000D01*
X174012000Y-64549000D02*
X174012000Y-65889000D01*
X174012000Y-67969000D02*
X174012000Y-69309000D01*
X174052000Y-64586000D02*
X174052000Y-65889000D01*
X174052000Y-67969000D02*
X174052000Y-69272000D01*
X174092000Y-64624000D02*
X174092000Y-65889000D01*
X174092000Y-67969000D02*
X174092000Y-69234000D01*
X174132000Y-64664000D02*
X174132000Y-69194000D01*
X174172000Y-64705000D02*
X174172000Y-69153000D01*
X174212000Y-64747000D02*
X174212000Y-69111000D01*
X174252000Y-64792000D02*
X174252000Y-69066000D01*
X174292000Y-64837000D02*
X174292000Y-69021000D01*
X174332000Y-64885000D02*
X174332000Y-68973000D01*
X174372000Y-64934000D02*
X174372000Y-68924000D01*
X174412000Y-64985000D02*
X174412000Y-68873000D01*
X174452000Y-65039000D02*
X174452000Y-68819000D01*
X174492000Y-65095000D02*
X174492000Y-68763000D01*
X174532000Y-65153000D02*
X174532000Y-68705000D01*
X174572000Y-65215000D02*
X174572000Y-68643000D01*
X174612000Y-65279000D02*
X174612000Y-68579000D01*
X174652000Y-65348000D02*
X174652000Y-68510000D01*
X174692000Y-65420000D02*
X174692000Y-68438000D01*
X174732000Y-65497000D02*
X174732000Y-68361000D01*
X174772000Y-65579000D02*
X174772000Y-68279000D01*
X174812000Y-65667000D02*
X174812000Y-68191000D01*
X174852000Y-65764000D02*
X174852000Y-68094000D01*
X174892000Y-65870000D02*
X174892000Y-67988000D01*
X174932000Y-65989000D02*
X174932000Y-67869000D01*
X174972000Y-66127000D02*
X174972000Y-67731000D01*
X175012000Y-66296000D02*
X175012000Y-67562000D01*
X175052000Y-66527000D02*
X175052000Y-67331000D01*
X168310759Y-65090000D02*
X168940759Y-65090000D01*
X168625759Y-64775000D02*
X168625759Y-65405000D01*
%TO.C,C3*%
X132033000Y-57439000D02*
X132033000Y-68679000D01*
X126793000Y-57439000D02*
X126793000Y-68679000D01*
X132033000Y-57439000D02*
X126793000Y-57439000D01*
X132033000Y-68679000D02*
X126793000Y-68679000D01*
%TO.C,C2*%
X121238000Y-57439000D02*
X121238000Y-68679000D01*
X115998000Y-57439000D02*
X115998000Y-68679000D01*
X121238000Y-57439000D02*
X115998000Y-57439000D01*
X121238000Y-68679000D02*
X115998000Y-68679000D01*
%TO.C,C1*%
X110316000Y-57439000D02*
X110316000Y-68679000D01*
X105076000Y-57439000D02*
X105076000Y-68679000D01*
X110316000Y-57439000D02*
X105076000Y-57439000D01*
X110316000Y-68679000D02*
X105076000Y-68679000D01*
%TO.C,Q2*%
D10*
X146597619Y-95980238D02*
X146550000Y-96075476D01*
X146454761Y-96170714D01*
X146311904Y-96313571D01*
X146264285Y-96408809D01*
X146264285Y-96504047D01*
X146502380Y-96456428D02*
X146454761Y-96551666D01*
X146359523Y-96646904D01*
X146169047Y-96694523D01*
X145835714Y-96694523D01*
X145645238Y-96646904D01*
X145550000Y-96551666D01*
X145502380Y-96456428D01*
X145502380Y-96265952D01*
X145550000Y-96170714D01*
X145645238Y-96075476D01*
X145835714Y-96027857D01*
X146169047Y-96027857D01*
X146359523Y-96075476D01*
X146454761Y-96170714D01*
X146502380Y-96265952D01*
X146502380Y-96456428D01*
X145597619Y-95646904D02*
X145550000Y-95599285D01*
X145502380Y-95504047D01*
X145502380Y-95265952D01*
X145550000Y-95170714D01*
X145597619Y-95123095D01*
X145692857Y-95075476D01*
X145788095Y-95075476D01*
X145930952Y-95123095D01*
X146502380Y-95694523D01*
X146502380Y-95075476D01*
%TO.C,Q1*%
X151677619Y-88741238D02*
X151630000Y-88836476D01*
X151534761Y-88931714D01*
X151391904Y-89074571D01*
X151344285Y-89169809D01*
X151344285Y-89265047D01*
X151582380Y-89217428D02*
X151534761Y-89312666D01*
X151439523Y-89407904D01*
X151249047Y-89455523D01*
X150915714Y-89455523D01*
X150725238Y-89407904D01*
X150630000Y-89312666D01*
X150582380Y-89217428D01*
X150582380Y-89026952D01*
X150630000Y-88931714D01*
X150725238Y-88836476D01*
X150915714Y-88788857D01*
X151249047Y-88788857D01*
X151439523Y-88836476D01*
X151534761Y-88931714D01*
X151582380Y-89026952D01*
X151582380Y-89217428D01*
X151582380Y-87836476D02*
X151582380Y-88407904D01*
X151582380Y-88122190D02*
X150582380Y-88122190D01*
X150725238Y-88217428D01*
X150820476Y-88312666D01*
X150868095Y-88407904D01*
%TO.C,J1*%
X176744380Y-70564333D02*
X177458666Y-70564333D01*
X177601523Y-70611952D01*
X177696761Y-70707190D01*
X177744380Y-70850047D01*
X177744380Y-70945285D01*
X177744380Y-69564333D02*
X177744380Y-70135761D01*
X177744380Y-69850047D02*
X176744380Y-69850047D01*
X176887238Y-69945285D01*
X176982476Y-70040523D01*
X177030095Y-70135761D01*
X178522380Y-81407000D02*
X178760476Y-81407000D01*
X178665238Y-81645095D02*
X178760476Y-81407000D01*
X178665238Y-81168904D01*
X178950952Y-81549857D02*
X178760476Y-81407000D01*
X178950952Y-81264142D01*
%TO.C,V1*%
X133995586Y-91960425D02*
X134938395Y-92431830D01*
X134466990Y-91489021D01*
X135780188Y-91590036D02*
X135376127Y-91994097D01*
X135578158Y-91792066D02*
X134871051Y-91084960D01*
X134904723Y-91253318D01*
X134904723Y-91388005D01*
X134871051Y-91489021D01*
%TO.C,RV1*%
X144184761Y-51379380D02*
X143851428Y-50903190D01*
X143613333Y-51379380D02*
X143613333Y-50379380D01*
X143994285Y-50379380D01*
X144089523Y-50427000D01*
X144137142Y-50474619D01*
X144184761Y-50569857D01*
X144184761Y-50712714D01*
X144137142Y-50807952D01*
X144089523Y-50855571D01*
X143994285Y-50903190D01*
X143613333Y-50903190D01*
X144470476Y-50379380D02*
X144803809Y-51379380D01*
X145137142Y-50379380D01*
X145994285Y-51379380D02*
X145422857Y-51379380D01*
X145708571Y-51379380D02*
X145708571Y-50379380D01*
X145613333Y-50522238D01*
X145518095Y-50617476D01*
X145422857Y-50665095D01*
%TO.C,R11*%
X124023380Y-71000857D02*
X123547190Y-71334190D01*
X124023380Y-71572285D02*
X123023380Y-71572285D01*
X123023380Y-71191333D01*
X123071000Y-71096095D01*
X123118619Y-71048476D01*
X123213857Y-71000857D01*
X123356714Y-71000857D01*
X123451952Y-71048476D01*
X123499571Y-71096095D01*
X123547190Y-71191333D01*
X123547190Y-71572285D01*
X124023380Y-70048476D02*
X124023380Y-70619904D01*
X124023380Y-70334190D02*
X123023380Y-70334190D01*
X123166238Y-70429428D01*
X123261476Y-70524666D01*
X123309095Y-70619904D01*
X124023380Y-69096095D02*
X124023380Y-69667523D01*
X124023380Y-69381809D02*
X123023380Y-69381809D01*
X123166238Y-69477047D01*
X123261476Y-69572285D01*
X123309095Y-69667523D01*
%TO.C,R10*%
X134945380Y-71000857D02*
X134469190Y-71334190D01*
X134945380Y-71572285D02*
X133945380Y-71572285D01*
X133945380Y-71191333D01*
X133993000Y-71096095D01*
X134040619Y-71048476D01*
X134135857Y-71000857D01*
X134278714Y-71000857D01*
X134373952Y-71048476D01*
X134421571Y-71096095D01*
X134469190Y-71191333D01*
X134469190Y-71572285D01*
X134945380Y-70048476D02*
X134945380Y-70619904D01*
X134945380Y-70334190D02*
X133945380Y-70334190D01*
X134088238Y-70429428D01*
X134183476Y-70524666D01*
X134231095Y-70619904D01*
X133945380Y-69429428D02*
X133945380Y-69334190D01*
X133993000Y-69238952D01*
X134040619Y-69191333D01*
X134135857Y-69143714D01*
X134326333Y-69096095D01*
X134564428Y-69096095D01*
X134754904Y-69143714D01*
X134850142Y-69191333D01*
X134897761Y-69238952D01*
X134945380Y-69334190D01*
X134945380Y-69429428D01*
X134897761Y-69524666D01*
X134850142Y-69572285D01*
X134754904Y-69619904D01*
X134564428Y-69667523D01*
X134326333Y-69667523D01*
X134135857Y-69619904D01*
X134040619Y-69572285D01*
X133993000Y-69524666D01*
X133945380Y-69429428D01*
%TO.C,R9*%
X113101380Y-70524666D02*
X112625190Y-70858000D01*
X113101380Y-71096095D02*
X112101380Y-71096095D01*
X112101380Y-70715142D01*
X112149000Y-70619904D01*
X112196619Y-70572285D01*
X112291857Y-70524666D01*
X112434714Y-70524666D01*
X112529952Y-70572285D01*
X112577571Y-70619904D01*
X112625190Y-70715142D01*
X112625190Y-71096095D01*
X113101380Y-70048476D02*
X113101380Y-69858000D01*
X113053761Y-69762761D01*
X113006142Y-69715142D01*
X112863285Y-69619904D01*
X112672809Y-69572285D01*
X112291857Y-69572285D01*
X112196619Y-69619904D01*
X112149000Y-69667523D01*
X112101380Y-69762761D01*
X112101380Y-69953238D01*
X112149000Y-70048476D01*
X112196619Y-70096095D01*
X112291857Y-70143714D01*
X112529952Y-70143714D01*
X112625190Y-70096095D01*
X112672809Y-70048476D01*
X112720428Y-69953238D01*
X112720428Y-69762761D01*
X112672809Y-69667523D01*
X112625190Y-69619904D01*
X112529952Y-69572285D01*
%TO.C,R8*%
X142819380Y-68238666D02*
X142343190Y-68572000D01*
X142819380Y-68810095D02*
X141819380Y-68810095D01*
X141819380Y-68429142D01*
X141867000Y-68333904D01*
X141914619Y-68286285D01*
X142009857Y-68238666D01*
X142152714Y-68238666D01*
X142247952Y-68286285D01*
X142295571Y-68333904D01*
X142343190Y-68429142D01*
X142343190Y-68810095D01*
X142247952Y-67667238D02*
X142200333Y-67762476D01*
X142152714Y-67810095D01*
X142057476Y-67857714D01*
X142009857Y-67857714D01*
X141914619Y-67810095D01*
X141867000Y-67762476D01*
X141819380Y-67667238D01*
X141819380Y-67476761D01*
X141867000Y-67381523D01*
X141914619Y-67333904D01*
X142009857Y-67286285D01*
X142057476Y-67286285D01*
X142152714Y-67333904D01*
X142200333Y-67381523D01*
X142247952Y-67476761D01*
X142247952Y-67667238D01*
X142295571Y-67762476D01*
X142343190Y-67810095D01*
X142438428Y-67857714D01*
X142628904Y-67857714D01*
X142724142Y-67810095D01*
X142771761Y-67762476D01*
X142819380Y-67667238D01*
X142819380Y-67476761D01*
X142771761Y-67381523D01*
X142724142Y-67333904D01*
X142628904Y-67286285D01*
X142438428Y-67286285D01*
X142343190Y-67333904D01*
X142295571Y-67381523D01*
X142247952Y-67476761D01*
%TO.C,R7*%
X161361380Y-55284666D02*
X160885190Y-55618000D01*
X161361380Y-55856095D02*
X160361380Y-55856095D01*
X160361380Y-55475142D01*
X160409000Y-55379904D01*
X160456619Y-55332285D01*
X160551857Y-55284666D01*
X160694714Y-55284666D01*
X160789952Y-55332285D01*
X160837571Y-55379904D01*
X160885190Y-55475142D01*
X160885190Y-55856095D01*
X160361380Y-54951333D02*
X160361380Y-54284666D01*
X161361380Y-54713238D01*
%TO.C,R6*%
X153122333Y-68694380D02*
X152789000Y-68218190D01*
X152550904Y-68694380D02*
X152550904Y-67694380D01*
X152931857Y-67694380D01*
X153027095Y-67742000D01*
X153074714Y-67789619D01*
X153122333Y-67884857D01*
X153122333Y-68027714D01*
X153074714Y-68122952D01*
X153027095Y-68170571D01*
X152931857Y-68218190D01*
X152550904Y-68218190D01*
X153979476Y-67694380D02*
X153789000Y-67694380D01*
X153693761Y-67742000D01*
X153646142Y-67789619D01*
X153550904Y-67932476D01*
X153503285Y-68122952D01*
X153503285Y-68503904D01*
X153550904Y-68599142D01*
X153598523Y-68646761D01*
X153693761Y-68694380D01*
X153884238Y-68694380D01*
X153979476Y-68646761D01*
X154027095Y-68599142D01*
X154074714Y-68503904D01*
X154074714Y-68265809D01*
X154027095Y-68170571D01*
X153979476Y-68122952D01*
X153884238Y-68075333D01*
X153693761Y-68075333D01*
X153598523Y-68122952D01*
X153550904Y-68170571D01*
X153503285Y-68265809D01*
%TO.C,R5*%
X164663380Y-55411666D02*
X164187190Y-55745000D01*
X164663380Y-55983095D02*
X163663380Y-55983095D01*
X163663380Y-55602142D01*
X163711000Y-55506904D01*
X163758619Y-55459285D01*
X163853857Y-55411666D01*
X163996714Y-55411666D01*
X164091952Y-55459285D01*
X164139571Y-55506904D01*
X164187190Y-55602142D01*
X164187190Y-55983095D01*
X163663380Y-54506904D02*
X163663380Y-54983095D01*
X164139571Y-55030714D01*
X164091952Y-54983095D01*
X164044333Y-54887857D01*
X164044333Y-54649761D01*
X164091952Y-54554523D01*
X164139571Y-54506904D01*
X164234809Y-54459285D01*
X164472904Y-54459285D01*
X164568142Y-54506904D01*
X164615761Y-54554523D01*
X164663380Y-54649761D01*
X164663380Y-54887857D01*
X164615761Y-54983095D01*
X164568142Y-55030714D01*
%TO.C,R4*%
X178125380Y-66333666D02*
X177649190Y-66667000D01*
X178125380Y-66905095D02*
X177125380Y-66905095D01*
X177125380Y-66524142D01*
X177173000Y-66428904D01*
X177220619Y-66381285D01*
X177315857Y-66333666D01*
X177458714Y-66333666D01*
X177553952Y-66381285D01*
X177601571Y-66428904D01*
X177649190Y-66524142D01*
X177649190Y-66905095D01*
X177458714Y-65476523D02*
X178125380Y-65476523D01*
X177077761Y-65714619D02*
X177792047Y-65952714D01*
X177792047Y-65333666D01*
%TO.C,R3*%
X154630380Y-55284666D02*
X154154190Y-55618000D01*
X154630380Y-55856095D02*
X153630380Y-55856095D01*
X153630380Y-55475142D01*
X153678000Y-55379904D01*
X153725619Y-55332285D01*
X153820857Y-55284666D01*
X153963714Y-55284666D01*
X154058952Y-55332285D01*
X154106571Y-55379904D01*
X154154190Y-55475142D01*
X154154190Y-55856095D01*
X153630380Y-54951333D02*
X153630380Y-54332285D01*
X154011333Y-54665619D01*
X154011333Y-54522761D01*
X154058952Y-54427523D01*
X154106571Y-54379904D01*
X154201809Y-54332285D01*
X154439904Y-54332285D01*
X154535142Y-54379904D01*
X154582761Y-54427523D01*
X154630380Y-54522761D01*
X154630380Y-54808476D01*
X154582761Y-54903714D01*
X154535142Y-54951333D01*
%TO.C,R2*%
X107386380Y-108370666D02*
X106910190Y-108704000D01*
X107386380Y-108942095D02*
X106386380Y-108942095D01*
X106386380Y-108561142D01*
X106434000Y-108465904D01*
X106481619Y-108418285D01*
X106576857Y-108370666D01*
X106719714Y-108370666D01*
X106814952Y-108418285D01*
X106862571Y-108465904D01*
X106910190Y-108561142D01*
X106910190Y-108942095D01*
X106481619Y-107989714D02*
X106434000Y-107942095D01*
X106386380Y-107846857D01*
X106386380Y-107608761D01*
X106434000Y-107513523D01*
X106481619Y-107465904D01*
X106576857Y-107418285D01*
X106672095Y-107418285D01*
X106814952Y-107465904D01*
X107386380Y-108037333D01*
X107386380Y-107418285D01*
%TO.C,R1*%
X158059380Y-101893666D02*
X157583190Y-102227000D01*
X158059380Y-102465095D02*
X157059380Y-102465095D01*
X157059380Y-102084142D01*
X157107000Y-101988904D01*
X157154619Y-101941285D01*
X157249857Y-101893666D01*
X157392714Y-101893666D01*
X157487952Y-101941285D01*
X157535571Y-101988904D01*
X157583190Y-102084142D01*
X157583190Y-102465095D01*
X158059380Y-100941285D02*
X158059380Y-101512714D01*
X158059380Y-101227000D02*
X157059380Y-101227000D01*
X157202238Y-101322238D01*
X157297476Y-101417476D01*
X157345095Y-101512714D01*
%TO.C,Q3*%
X154725619Y-81756238D02*
X154678000Y-81851476D01*
X154582761Y-81946714D01*
X154439904Y-82089571D01*
X154392285Y-82184809D01*
X154392285Y-82280047D01*
X154630380Y-82232428D02*
X154582761Y-82327666D01*
X154487523Y-82422904D01*
X154297047Y-82470523D01*
X153963714Y-82470523D01*
X153773238Y-82422904D01*
X153678000Y-82327666D01*
X153630380Y-82232428D01*
X153630380Y-82041952D01*
X153678000Y-81946714D01*
X153773238Y-81851476D01*
X153963714Y-81803857D01*
X154297047Y-81803857D01*
X154487523Y-81851476D01*
X154582761Y-81946714D01*
X154630380Y-82041952D01*
X154630380Y-82232428D01*
X153630380Y-81470523D02*
X153630380Y-80851476D01*
X154011333Y-81184809D01*
X154011333Y-81041952D01*
X154058952Y-80946714D01*
X154106571Y-80899095D01*
X154201809Y-80851476D01*
X154439904Y-80851476D01*
X154535142Y-80899095D01*
X154582761Y-80946714D01*
X154630380Y-81041952D01*
X154630380Y-81327666D01*
X154582761Y-81422904D01*
X154535142Y-81470523D01*
%TO.C,L2*%
X122880380Y-114339666D02*
X122880380Y-114815857D01*
X121880380Y-114815857D01*
X121975619Y-114053952D02*
X121928000Y-114006333D01*
X121880380Y-113911095D01*
X121880380Y-113673000D01*
X121928000Y-113577761D01*
X121975619Y-113530142D01*
X122070857Y-113482523D01*
X122166095Y-113482523D01*
X122308952Y-113530142D01*
X122880380Y-114101571D01*
X122880380Y-113482523D01*
%TO.C,L1*%
X111577380Y-114212666D02*
X111577380Y-114688857D01*
X110577380Y-114688857D01*
X111577380Y-113355523D02*
X111577380Y-113926952D01*
X111577380Y-113641238D02*
X110577380Y-113641238D01*
X110720238Y-113736476D01*
X110815476Y-113831714D01*
X110863095Y-113926952D01*
%TO.C,D3*%
X139898380Y-97639095D02*
X138898380Y-97639095D01*
X138898380Y-97401000D01*
X138946000Y-97258142D01*
X139041238Y-97162904D01*
X139136476Y-97115285D01*
X139326952Y-97067666D01*
X139469809Y-97067666D01*
X139660285Y-97115285D01*
X139755523Y-97162904D01*
X139850761Y-97258142D01*
X139898380Y-97401000D01*
X139898380Y-97639095D01*
X138898380Y-96734333D02*
X138898380Y-96115285D01*
X139279333Y-96448619D01*
X139279333Y-96305761D01*
X139326952Y-96210523D01*
X139374571Y-96162904D01*
X139469809Y-96115285D01*
X139707904Y-96115285D01*
X139803142Y-96162904D01*
X139850761Y-96210523D01*
X139898380Y-96305761D01*
X139898380Y-96591476D01*
X139850761Y-96686714D01*
X139803142Y-96734333D01*
%TO.C,D2*%
X158059380Y-55856095D02*
X157059380Y-55856095D01*
X157059380Y-55618000D01*
X157107000Y-55475142D01*
X157202238Y-55379904D01*
X157297476Y-55332285D01*
X157487952Y-55284666D01*
X157630809Y-55284666D01*
X157821285Y-55332285D01*
X157916523Y-55379904D01*
X158011761Y-55475142D01*
X158059380Y-55618000D01*
X158059380Y-55856095D01*
X157154619Y-54903714D02*
X157107000Y-54856095D01*
X157059380Y-54760857D01*
X157059380Y-54522761D01*
X157107000Y-54427523D01*
X157154619Y-54379904D01*
X157249857Y-54332285D01*
X157345095Y-54332285D01*
X157487952Y-54379904D01*
X158059380Y-54951333D01*
X158059380Y-54332285D01*
%TO.C,D1*%
X116364380Y-94972095D02*
X115364380Y-94972095D01*
X115364380Y-94734000D01*
X115412000Y-94591142D01*
X115507238Y-94495904D01*
X115602476Y-94448285D01*
X115792952Y-94400666D01*
X115935809Y-94400666D01*
X116126285Y-94448285D01*
X116221523Y-94495904D01*
X116316761Y-94591142D01*
X116364380Y-94734000D01*
X116364380Y-94972095D01*
X116364380Y-93448285D02*
X116364380Y-94019714D01*
X116364380Y-93734000D02*
X115364380Y-93734000D01*
X115507238Y-93829238D01*
X115602476Y-93924476D01*
X115650095Y-94019714D01*
X116044380Y-90685904D02*
X115044380Y-90685904D01*
X116044380Y-90114476D02*
X115472952Y-90543047D01*
X115044380Y-90114476D02*
X115615809Y-90685904D01*
%TO.C,C9*%
X128754142Y-104179666D02*
X128801761Y-104227285D01*
X128849380Y-104370142D01*
X128849380Y-104465380D01*
X128801761Y-104608238D01*
X128706523Y-104703476D01*
X128611285Y-104751095D01*
X128420809Y-104798714D01*
X128277952Y-104798714D01*
X128087476Y-104751095D01*
X127992238Y-104703476D01*
X127897000Y-104608238D01*
X127849380Y-104465380D01*
X127849380Y-104370142D01*
X127897000Y-104227285D01*
X127944619Y-104179666D01*
X128849380Y-103703476D02*
X128849380Y-103513000D01*
X128801761Y-103417761D01*
X128754142Y-103370142D01*
X128611285Y-103274904D01*
X128420809Y-103227285D01*
X128039857Y-103227285D01*
X127944619Y-103274904D01*
X127897000Y-103322523D01*
X127849380Y-103417761D01*
X127849380Y-103608238D01*
X127897000Y-103703476D01*
X127944619Y-103751095D01*
X128039857Y-103798714D01*
X128277952Y-103798714D01*
X128373190Y-103751095D01*
X128420809Y-103703476D01*
X128468428Y-103608238D01*
X128468428Y-103417761D01*
X128420809Y-103322523D01*
X128373190Y-103274904D01*
X128277952Y-103227285D01*
%TO.C,C8*%
X170410142Y-53506666D02*
X170457761Y-53554285D01*
X170505380Y-53697142D01*
X170505380Y-53792380D01*
X170457761Y-53935238D01*
X170362523Y-54030476D01*
X170267285Y-54078095D01*
X170076809Y-54125714D01*
X169933952Y-54125714D01*
X169743476Y-54078095D01*
X169648238Y-54030476D01*
X169553000Y-53935238D01*
X169505380Y-53792380D01*
X169505380Y-53697142D01*
X169553000Y-53554285D01*
X169600619Y-53506666D01*
X169933952Y-52935238D02*
X169886333Y-53030476D01*
X169838714Y-53078095D01*
X169743476Y-53125714D01*
X169695857Y-53125714D01*
X169600619Y-53078095D01*
X169553000Y-53030476D01*
X169505380Y-52935238D01*
X169505380Y-52744761D01*
X169553000Y-52649523D01*
X169600619Y-52601904D01*
X169695857Y-52554285D01*
X169743476Y-52554285D01*
X169838714Y-52601904D01*
X169886333Y-52649523D01*
X169933952Y-52744761D01*
X169933952Y-52935238D01*
X169981571Y-53030476D01*
X170029190Y-53078095D01*
X170124428Y-53125714D01*
X170314904Y-53125714D01*
X170410142Y-53078095D01*
X170457761Y-53030476D01*
X170505380Y-52935238D01*
X170505380Y-52744761D01*
X170457761Y-52649523D01*
X170410142Y-52601904D01*
X170314904Y-52554285D01*
X170124428Y-52554285D01*
X170029190Y-52601904D01*
X169981571Y-52649523D01*
X169933952Y-52744761D01*
%TO.C,C7*%
X118086142Y-112180666D02*
X118133761Y-112228285D01*
X118181380Y-112371142D01*
X118181380Y-112466380D01*
X118133761Y-112609238D01*
X118038523Y-112704476D01*
X117943285Y-112752095D01*
X117752809Y-112799714D01*
X117609952Y-112799714D01*
X117419476Y-112752095D01*
X117324238Y-112704476D01*
X117229000Y-112609238D01*
X117181380Y-112466380D01*
X117181380Y-112371142D01*
X117229000Y-112228285D01*
X117276619Y-112180666D01*
X117181380Y-111847333D02*
X117181380Y-111180666D01*
X118181380Y-111609238D01*
%TO.C,C6*%
X137557142Y-110148666D02*
X137604761Y-110196285D01*
X137652380Y-110339142D01*
X137652380Y-110434380D01*
X137604761Y-110577238D01*
X137509523Y-110672476D01*
X137414285Y-110720095D01*
X137223809Y-110767714D01*
X137080952Y-110767714D01*
X136890476Y-110720095D01*
X136795238Y-110672476D01*
X136700000Y-110577238D01*
X136652380Y-110434380D01*
X136652380Y-110339142D01*
X136700000Y-110196285D01*
X136747619Y-110148666D01*
X136652380Y-109291523D02*
X136652380Y-109482000D01*
X136700000Y-109577238D01*
X136747619Y-109624857D01*
X136890476Y-109720095D01*
X137080952Y-109767714D01*
X137461904Y-109767714D01*
X137557142Y-109720095D01*
X137604761Y-109672476D01*
X137652380Y-109577238D01*
X137652380Y-109386761D01*
X137604761Y-109291523D01*
X137557142Y-109243904D01*
X137461904Y-109196285D01*
X137223809Y-109196285D01*
X137128571Y-109243904D01*
X137080952Y-109291523D01*
X137033333Y-109386761D01*
X137033333Y-109577238D01*
X137080952Y-109672476D01*
X137128571Y-109720095D01*
X137223809Y-109767714D01*
%TO.C,C5*%
X145010142Y-82970666D02*
X145057761Y-83018285D01*
X145105380Y-83161142D01*
X145105380Y-83256380D01*
X145057761Y-83399238D01*
X144962523Y-83494476D01*
X144867285Y-83542095D01*
X144676809Y-83589714D01*
X144533952Y-83589714D01*
X144343476Y-83542095D01*
X144248238Y-83494476D01*
X144153000Y-83399238D01*
X144105380Y-83256380D01*
X144105380Y-83161142D01*
X144153000Y-83018285D01*
X144200619Y-82970666D01*
X144105380Y-82065904D02*
X144105380Y-82542095D01*
X144581571Y-82589714D01*
X144533952Y-82542095D01*
X144486333Y-82446857D01*
X144486333Y-82208761D01*
X144533952Y-82113523D01*
X144581571Y-82065904D01*
X144676809Y-82018285D01*
X144914904Y-82018285D01*
X145010142Y-82065904D01*
X145057761Y-82113523D01*
X145105380Y-82208761D01*
X145105380Y-82446857D01*
X145057761Y-82542095D01*
X145010142Y-82589714D01*
%TO.C,C4*%
X169013142Y-63412666D02*
X169060761Y-63460285D01*
X169108380Y-63603142D01*
X169108380Y-63698380D01*
X169060761Y-63841238D01*
X168965523Y-63936476D01*
X168870285Y-63984095D01*
X168679809Y-64031714D01*
X168536952Y-64031714D01*
X168346476Y-63984095D01*
X168251238Y-63936476D01*
X168156000Y-63841238D01*
X168108380Y-63698380D01*
X168108380Y-63603142D01*
X168156000Y-63460285D01*
X168203619Y-63412666D01*
X168441714Y-62555523D02*
X169108380Y-62555523D01*
X168060761Y-62793619D02*
X168775047Y-63031714D01*
X168775047Y-62412666D01*
%TO.C,C3*%
X129770142Y-56300666D02*
X129817761Y-56348285D01*
X129865380Y-56491142D01*
X129865380Y-56586380D01*
X129817761Y-56729238D01*
X129722523Y-56824476D01*
X129627285Y-56872095D01*
X129436809Y-56919714D01*
X129293952Y-56919714D01*
X129103476Y-56872095D01*
X129008238Y-56824476D01*
X128913000Y-56729238D01*
X128865380Y-56586380D01*
X128865380Y-56491142D01*
X128913000Y-56348285D01*
X128960619Y-56300666D01*
X128865380Y-55967333D02*
X128865380Y-55348285D01*
X129246333Y-55681619D01*
X129246333Y-55538761D01*
X129293952Y-55443523D01*
X129341571Y-55395904D01*
X129436809Y-55348285D01*
X129674904Y-55348285D01*
X129770142Y-55395904D01*
X129817761Y-55443523D01*
X129865380Y-55538761D01*
X129865380Y-55824476D01*
X129817761Y-55919714D01*
X129770142Y-55967333D01*
%TO.C,C2*%
X118848142Y-56300666D02*
X118895761Y-56348285D01*
X118943380Y-56491142D01*
X118943380Y-56586380D01*
X118895761Y-56729238D01*
X118800523Y-56824476D01*
X118705285Y-56872095D01*
X118514809Y-56919714D01*
X118371952Y-56919714D01*
X118181476Y-56872095D01*
X118086238Y-56824476D01*
X117991000Y-56729238D01*
X117943380Y-56586380D01*
X117943380Y-56491142D01*
X117991000Y-56348285D01*
X118038619Y-56300666D01*
X118038619Y-55919714D02*
X117991000Y-55872095D01*
X117943380Y-55776857D01*
X117943380Y-55538761D01*
X117991000Y-55443523D01*
X118038619Y-55395904D01*
X118133857Y-55348285D01*
X118229095Y-55348285D01*
X118371952Y-55395904D01*
X118943380Y-55967333D01*
X118943380Y-55348285D01*
%TO.C,C1*%
X108053142Y-56173666D02*
X108100761Y-56221285D01*
X108148380Y-56364142D01*
X108148380Y-56459380D01*
X108100761Y-56602238D01*
X108005523Y-56697476D01*
X107910285Y-56745095D01*
X107719809Y-56792714D01*
X107576952Y-56792714D01*
X107386476Y-56745095D01*
X107291238Y-56697476D01*
X107196000Y-56602238D01*
X107148380Y-56459380D01*
X107148380Y-56364142D01*
X107196000Y-56221285D01*
X107243619Y-56173666D01*
X108148380Y-55221285D02*
X108148380Y-55792714D01*
X108148380Y-55507000D02*
X107148380Y-55507000D01*
X107291238Y-55602238D01*
X107386476Y-55697476D01*
X107434095Y-55792714D01*
%TD*%
M02*
