%TF.GenerationSoftware,KiCad,Pcbnew,(5.1.12)-1*%
%TF.CreationDate,2022-10-17T14:23:25-06:00*%
%TF.ProjectId,SE30-Grayscale,53453330-2d47-4726-9179-7363616c652e,rev?*%
%TF.SameCoordinates,Original*%
%TF.FileFunction,Soldermask,Top*%
%TF.FilePolarity,Negative*%
%FSLAX46Y46*%
G04 Gerber Fmt 4.6, Leading zero omitted, Abs format (unit mm)*
G04 Created by KiCad (PCBNEW (5.1.12)-1) date 2022-10-17 14:23:25*
%MOMM*%
%LPD*%
G01*
G04 APERTURE LIST*
%ADD10R,2.300000X2.300000*%
%ADD11C,2.300000*%
%ADD12C,3.200001*%
%ADD13R,1.500000X1.500000*%
%ADD14C,1.500000*%
%ADD15C,1.800000*%
%ADD16O,2.400000X2.400000*%
%ADD17C,2.400000*%
%ADD18O,1.600000X1.600000*%
%ADD19C,1.600000*%
%ADD20R,1.600000X1.600000*%
%ADD21C,1.400000*%
%ADD22C,2.000000*%
G04 APERTURE END LIST*
D10*
%TO.C,J1*%
X179070000Y-81407000D03*
D11*
X179070000Y-85606999D03*
X179070000Y-89806998D03*
X179070000Y-94006998D03*
X173570001Y-81407000D03*
X173570001Y-85606999D03*
X173570001Y-89806998D03*
X173570001Y-94006998D03*
D12*
X183269999Y-76907001D03*
X183269999Y-98506958D03*
%TD*%
%TO.C,V1*%
G36*
G01*
X136502276Y-82794974D02*
X136502276Y-82794974D01*
G75*
G02*
X136502276Y-84591026I-898026J-898026D01*
G01*
X136502276Y-84591026D01*
G75*
G02*
X134706224Y-84591026I-898026J898026D01*
G01*
X134706224Y-84591026D01*
G75*
G02*
X134706224Y-82794974I898026J898026D01*
G01*
X134706224Y-82794974D01*
G75*
G02*
X136502276Y-82794974I898026J-898026D01*
G01*
G37*
G36*
G01*
X133944952Y-76621048D02*
X133944952Y-76621048D01*
G75*
G02*
X133944952Y-78417100I-898026J-898026D01*
G01*
X133944952Y-78417100D01*
G75*
G02*
X132148900Y-78417100I-898026J898026D01*
G01*
X132148900Y-78417100D01*
G75*
G02*
X132148900Y-76621048I898026J898026D01*
G01*
X132148900Y-76621048D01*
G75*
G02*
X133944952Y-76621048I898026J-898026D01*
G01*
G37*
G36*
G01*
X127771026Y-74063724D02*
X127771026Y-74063724D01*
G75*
G02*
X127771026Y-75859776I-898026J-898026D01*
G01*
X127771026Y-75859776D01*
G75*
G02*
X125974974Y-75859776I-898026J898026D01*
G01*
X125974974Y-75859776D01*
G75*
G02*
X125974974Y-74063724I898026J898026D01*
G01*
X125974974Y-74063724D01*
G75*
G02*
X127771026Y-74063724I898026J-898026D01*
G01*
G37*
G36*
G01*
X119039776Y-82794974D02*
X119039776Y-82794974D01*
G75*
G02*
X119039776Y-84591026I-898026J-898026D01*
G01*
X119039776Y-84591026D01*
G75*
G02*
X117243724Y-84591026I-898026J898026D01*
G01*
X117243724Y-84591026D01*
G75*
G02*
X117243724Y-82794974I898026J898026D01*
G01*
X117243724Y-82794974D01*
G75*
G02*
X119039776Y-82794974I898026J-898026D01*
G01*
G37*
G36*
G01*
X121597100Y-88968900D02*
X121597100Y-88968900D01*
G75*
G02*
X121597100Y-90764952I-898026J-898026D01*
G01*
X121597100Y-90764952D01*
G75*
G02*
X119801048Y-90764952I-898026J898026D01*
G01*
X119801048Y-90764952D01*
G75*
G02*
X119801048Y-88968900I898026J898026D01*
G01*
X119801048Y-88968900D01*
G75*
G02*
X121597100Y-88968900I898026J-898026D01*
G01*
G37*
G36*
G01*
X127771026Y-91526224D02*
X127771026Y-91526224D01*
G75*
G02*
X127771026Y-93322276I-898026J-898026D01*
G01*
X127771026Y-93322276D01*
G75*
G02*
X125974974Y-93322276I-898026J898026D01*
G01*
X125974974Y-93322276D01*
G75*
G02*
X125974974Y-91526224I898026J898026D01*
G01*
X125974974Y-91526224D01*
G75*
G02*
X127771026Y-91526224I898026J-898026D01*
G01*
G37*
G36*
G01*
X133944952Y-88968900D02*
X133944952Y-88968900D01*
G75*
G02*
X133944952Y-90764952I-898026J-898026D01*
G01*
X133944952Y-90764952D01*
G75*
G02*
X132148900Y-90764952I-898026J898026D01*
G01*
X132148900Y-90764952D01*
G75*
G02*
X132148900Y-88968900I898026J898026D01*
G01*
X132148900Y-88968900D01*
G75*
G02*
X133944952Y-88968900I898026J-898026D01*
G01*
G37*
%TD*%
D13*
%TO.C,Q2*%
X143002000Y-90678000D03*
D14*
X143002000Y-95758000D03*
X143002000Y-93218000D03*
%TD*%
D13*
%TO.C,Q1*%
X148209000Y-83439000D03*
D14*
X148209000Y-88519000D03*
X148209000Y-85979000D03*
%TD*%
D15*
%TO.C,RV1*%
X147280000Y-55840000D03*
X142280000Y-55840000D03*
X144780000Y-53340000D03*
%TD*%
D16*
%TO.C,R11*%
X123825000Y-54483000D03*
D17*
X123825000Y-67183000D03*
%TD*%
D16*
%TO.C,R10*%
X134747000Y-54483000D03*
D17*
X134747000Y-67183000D03*
%TD*%
D16*
%TO.C,R9*%
X113030000Y-54483000D03*
D17*
X113030000Y-67183000D03*
%TD*%
D18*
%TO.C,R8*%
X145034000Y-67564000D03*
D19*
X145034000Y-59944000D03*
%TD*%
D18*
%TO.C,R7*%
X160909000Y-57531000D03*
D19*
X160909000Y-65151000D03*
%TD*%
D18*
%TO.C,R6*%
X157099000Y-70612000D03*
D19*
X149479000Y-70612000D03*
%TD*%
D18*
%TO.C,R5*%
X164211000Y-57531000D03*
D19*
X164211000Y-65151000D03*
%TD*%
D18*
%TO.C,R4*%
X177673000Y-63881000D03*
D19*
X177673000Y-56261000D03*
%TD*%
D18*
%TO.C,R3*%
X154051000Y-65151000D03*
D19*
X154051000Y-57531000D03*
%TD*%
D16*
%TO.C,R2*%
X107188000Y-84963000D03*
D17*
X107188000Y-105283000D03*
%TD*%
D16*
%TO.C,R1*%
X161798000Y-101346000D03*
D17*
X161798000Y-81026000D03*
%TD*%
D13*
%TO.C,Q3*%
X151765000Y-76200000D03*
D14*
X151765000Y-81280000D03*
X151765000Y-78740000D03*
%TD*%
D18*
%TO.C,L2*%
X122428000Y-99314000D03*
D19*
X122428000Y-112014000D03*
%TD*%
D18*
%TO.C,L1*%
X113919000Y-114046000D03*
D19*
X113919000Y-101346000D03*
%TD*%
D18*
%TO.C,D3*%
X137541000Y-92964000D03*
D20*
X137541000Y-100584000D03*
%TD*%
D18*
%TO.C,D2*%
X157607000Y-57531000D03*
D20*
X157607000Y-65151000D03*
%TD*%
D18*
%TO.C,D1*%
X113792000Y-98044000D03*
D20*
X113792000Y-90424000D03*
%TD*%
D19*
%TO.C,C9*%
X131318000Y-110561000D03*
D20*
X131318000Y-107061000D03*
%TD*%
D19*
%TO.C,C8*%
X171037000Y-57404000D03*
D20*
X169037000Y-57404000D03*
%TD*%
D21*
%TO.C,C7*%
X117602000Y-106847000D03*
X117602000Y-109347000D03*
%TD*%
D19*
%TO.C,C6*%
X139700000Y-105490000D03*
X139700000Y-110490000D03*
%TD*%
%TO.C,C5*%
X145066000Y-78994000D03*
D20*
X147066000Y-78994000D03*
%TD*%
D19*
%TO.C,C4*%
X173061000Y-66929000D03*
D20*
X170561000Y-66929000D03*
%TD*%
D22*
%TO.C,C3*%
X129413000Y-66809000D03*
X129413000Y-59309000D03*
%TD*%
%TO.C,C2*%
X118618000Y-66809000D03*
X118618000Y-59309000D03*
%TD*%
%TO.C,C1*%
X107696000Y-66809000D03*
X107696000Y-59309000D03*
%TD*%
M02*
